<svg xmlns="http://www.w3.org/2000/svg" width="434" height="388" viewBox="0 0 434 388" fill="none"><g clip-path="url(#clip0_431_2)"><path opacity="0.15" d="M446.116 372.665C446.116 374.855 343.537 376.631 217 376.631C145.603 376.631 81.8338 376.065 39.814 375.179C30.1356 374.975 21.6123 374.754 14.4154 374.519C9.6749 374.364 5.50988 374.202 1.96914 374.036C-7.1407 373.609 -12.1162 373.147 -12.1162 372.665C-12.1162 372.05 -4.04066 371.468 10.3727 370.949C16.2754 370.736 23.2403 370.534 31.149 370.345C72.7628 369.348 140.504 368.699 217 368.699C284.287 368.699 344.801 369.2 386.718 370C423.626 370.704 446.116 371.639 446.116 372.665Z" fill="#040C2B"></path><path d="M352.08 142.285H86.4766V296.321H352.08V142.285Z" fill="#ADC9FF"></path><path d="M352.076 125H86.5752V142.323H352.076V125Z" fill="#0055FF"></path><path d="M95.3282 135.625C96.9396 135.625 98.2458 134.384 98.2458 132.853C98.2458 131.322 96.9396 130.081 95.3282 130.081C93.7169 130.081 92.4106 131.322 92.4106 132.853C92.4106 134.384 93.7169 135.625 95.3282 135.625Z" fill="#E3E9F7"></path><path d="M103.838 135.625C105.449 135.625 106.755 134.384 106.755 132.853C106.755 131.322 105.449 130.081 103.838 130.081C102.226 130.081 100.92 131.322 100.92 132.853C100.92 134.384 102.226 135.625 103.838 135.625Z" fill="#E3E9F7"></path><path d="M112.347 135.625C113.959 135.625 115.265 134.384 115.265 132.853C115.265 131.322 113.959 130.081 112.347 130.081C110.736 130.081 109.43 131.322 109.43 132.853C109.43 134.384 110.736 135.625 112.347 135.625Z" fill="#E3E9F7"></path><path d="M339.341 154.353H222.015V219.948H339.341V154.353Z" fill="#F9FBFD"></path><path d="M319.621 169.013H314.42V174.065H319.621V169.013Z" stroke="#6AE3EF" stroke-width="1.0402" stroke-miterlimit="10"></path><path d="M319.621 184.169H314.42V189.221H319.621V184.169Z" stroke="#6AE3EF" stroke-width="1.0402" stroke-miterlimit="10"></path><path d="M309.219 169.013H304.019V174.065H309.219V169.013Z" stroke="#6AE3EF" stroke-width="1.0402" stroke-miterlimit="10"></path><path d="M314.42 169.013H309.219V174.065H314.42V169.013Z" stroke="#6AE3EF" stroke-width="1.0402" stroke-miterlimit="10"></path><path d="M319.621 174.065H314.42V179.117H319.621V174.065Z" stroke="#6AE3EF" stroke-width="1.0402" stroke-miterlimit="10"></path><path d="M319.621 179.117H314.42V184.169H319.621V179.117Z" stroke="#6AE3EF" stroke-width="1.0402" stroke-miterlimit="10"></path><path d="M288.416 169.013H283.215V174.065H288.416V169.013Z" stroke="#6AE3EF" stroke-width="1.0402" stroke-miterlimit="10"></path><path d="M304.018 169.013H298.817V174.065H304.018V169.013Z" stroke="#6AE3EF" stroke-width="1.0402" stroke-miterlimit="10"></path><path d="M278.014 169.013H272.813V174.065H278.014V169.013Z" stroke="#6AE3EF" stroke-width="1.0402" stroke-miterlimit="10"></path><path d="M319.621 189.221H314.42V194.273H319.621V189.221Z" stroke="#6AE3EF" stroke-width="1.0402" stroke-miterlimit="10"></path><path d="M283.215 169.013H278.014V174.065H283.215V169.013Z" stroke="#6AE3EF" stroke-width="1.0402" stroke-miterlimit="10"></path><path d="M293.617 169.013H288.416V174.065H293.617V169.013Z" stroke="#6AE3EF" stroke-width="1.0402" stroke-miterlimit="10"></path><path d="M298.818 169.013H293.617V174.065H298.818V169.013Z" stroke="#6AE3EF" stroke-width="1.0402" stroke-miterlimit="10"></path><path d="M288.416 194.273H283.215V199.325H288.416V194.273Z" stroke="#6AE3EF" stroke-width="1.0402" stroke-miterlimit="10"></path><path d="M272.813 194.273H267.612V199.325H272.813V194.273Z" stroke="#6AE3EF" stroke-width="1.0402" stroke-miterlimit="10"></path><path d="M283.215 194.273H278.014V199.325H283.215V194.273Z" stroke="#6AE3EF" stroke-width="1.0402" stroke-miterlimit="10"></path><path d="M319.621 194.273H314.42V199.325H319.621V194.273Z" stroke="#6AE3EF" stroke-width="1.0402" stroke-miterlimit="10"></path><path d="M278.014 194.273H272.813V199.325H278.014V194.273Z" stroke="#6AE3EF" stroke-width="1.0402" stroke-miterlimit="10"></path><path d="M252.01 194.273H246.81V199.325H252.01V194.273Z" stroke="#6AE3EF" stroke-width="1.0402" stroke-miterlimit="10"></path><path d="M257.211 194.273H252.01V199.325H257.211V194.273Z" stroke="#6AE3EF" stroke-width="1.0402" stroke-miterlimit="10"></path><path d="M262.411 194.273H257.21V199.325H262.411V194.273Z" stroke="#6AE3EF" stroke-width="1.0402" stroke-miterlimit="10"></path><path d="M267.612 194.273H262.412V199.325H267.612V194.273Z" stroke="#6AE3EF" stroke-width="1.0402" stroke-miterlimit="10"></path><path d="M272.813 169.013H267.612V174.065H272.813V169.013Z" stroke="#6AE3EF" stroke-width="1.0402" stroke-miterlimit="10"></path><path d="M309.219 194.273H304.019V199.325H309.219V194.273Z" stroke="#6AE3EF" stroke-width="1.0402" stroke-miterlimit="10"></path><path d="M314.42 194.273H309.219V199.325H314.42V194.273Z" stroke="#6AE3EF" stroke-width="1.0402" stroke-miterlimit="10"></path><path d="M304.018 194.273H298.817V199.325H304.018V194.273Z" stroke="#6AE3EF" stroke-width="1.0402" stroke-miterlimit="10"></path><path d="M298.818 194.273H293.617V199.325H298.818V194.273Z" stroke="#6AE3EF" stroke-width="1.0402" stroke-miterlimit="10"></path><path d="M293.617 194.273H288.416V199.325H293.617V194.273Z" stroke="#6AE3EF" stroke-width="1.0402" stroke-miterlimit="10"></path><path d="M324.822 199.325H319.621V204.378H324.822V199.325Z" stroke="#6AE3EF" stroke-width="1.0402" stroke-miterlimit="10"></path><path d="M288.416 199.325H283.215V204.378H288.416V199.325Z" stroke="#6AE3EF" stroke-width="1.0402" stroke-miterlimit="10"></path><path d="M283.215 199.325H278.014V204.378H283.215V199.325Z" stroke="#6AE3EF" stroke-width="1.0402" stroke-miterlimit="10"></path><path d="M293.617 199.325H288.416V204.378H293.617V199.325Z" stroke="#6AE3EF" stroke-width="1.0402" stroke-miterlimit="10"></path><path d="M272.813 199.325H267.612V204.378H272.813V199.325Z" stroke="#6AE3EF" stroke-width="1.0402" stroke-miterlimit="10"></path><path d="M267.612 199.325H262.412V204.378H267.612V199.325Z" stroke="#6AE3EF" stroke-width="1.0402" stroke-miterlimit="10"></path><path d="M278.014 199.325H272.813V204.378H278.014V199.325Z" stroke="#6AE3EF" stroke-width="1.0402" stroke-miterlimit="10"></path><path d="M262.411 199.325H257.21V204.378H262.411V199.325Z" stroke="#6AE3EF" stroke-width="1.0402" stroke-miterlimit="10"></path><path d="M298.818 199.325H293.617V204.378H298.818V199.325Z" stroke="#6AE3EF" stroke-width="1.0402" stroke-miterlimit="10"></path><path d="M246.809 194.273H241.608V199.325H246.809V194.273Z" stroke="#6AE3EF" stroke-width="1.0402" stroke-miterlimit="10"></path><path d="M324.822 194.273H319.621V199.325H324.822V194.273Z" stroke="#6AE3EF" stroke-width="1.0402" stroke-miterlimit="10"></path><path d="M319.621 199.325H314.42V204.378H319.621V199.325Z" stroke="#6AE3EF" stroke-width="1.0402" stroke-miterlimit="10"></path><path d="M309.219 199.325H304.019V204.378H309.219V199.325Z" stroke="#6AE3EF" stroke-width="1.0402" stroke-miterlimit="10"></path><path d="M314.42 199.325H309.219V204.378H314.42V199.325Z" stroke="#6AE3EF" stroke-width="1.0402" stroke-miterlimit="10"></path><path d="M304.018 199.325H298.817V204.378H304.018V199.325Z" stroke="#6AE3EF" stroke-width="1.0402" stroke-miterlimit="10"></path><path d="M257.211 199.325H252.01V204.378H257.211V199.325Z" stroke="#6AE3EF" stroke-width="1.0402" stroke-miterlimit="10"></path><path d="M241.609 169.013H236.408V174.065H241.609V169.013Z" stroke="#6AE3EF" stroke-width="1.0402" stroke-miterlimit="10"></path><path d="M324.822 189.221H319.621V194.273H324.822V189.221Z" stroke="#6AE3EF" stroke-width="1.0402" stroke-miterlimit="10"></path><path d="M241.609 179.117H236.408V184.169H241.609V179.117Z" stroke="#6AE3EF" stroke-width="1.0402" stroke-miterlimit="10"></path><path d="M241.609 174.065H236.408V179.117H241.609V174.065Z" stroke="#6AE3EF" stroke-width="1.0402" stroke-miterlimit="10"></path><path d="M252.01 169.013H246.81V174.065H252.01V169.013Z" stroke="#6AE3EF" stroke-width="1.0402" stroke-miterlimit="10"></path><path d="M267.612 169.013H262.412V174.065H267.612V169.013Z" stroke="#6AE3EF" stroke-width="1.0402" stroke-miterlimit="10"></path><path d="M257.211 169.013H252.01V174.065H257.211V169.013Z" stroke="#6AE3EF" stroke-width="1.0402" stroke-miterlimit="10"></path><path d="M262.411 169.013H257.21V174.065H262.411V169.013Z" stroke="#6AE3EF" stroke-width="1.0402" stroke-miterlimit="10"></path><path d="M241.609 199.325H236.408V204.378H241.609V199.325Z" stroke="#6AE3EF" stroke-width="1.0402" stroke-miterlimit="10"></path><path d="M246.809 199.325H241.608V204.378H246.809V199.325Z" stroke="#6AE3EF" stroke-width="1.0402" stroke-miterlimit="10"></path><path d="M252.01 199.325H246.81V204.378H252.01V199.325Z" stroke="#6AE3EF" stroke-width="1.0402" stroke-miterlimit="10"></path><path d="M241.609 189.221H236.408V194.273H241.609V189.221Z" stroke="#6AE3EF" stroke-width="1.0402" stroke-miterlimit="10"></path><path d="M241.609 194.273H236.408V199.325H241.609V194.273Z" stroke="#6AE3EF" stroke-width="1.0402" stroke-miterlimit="10"></path><path d="M241.609 184.169H236.408V189.221H241.609V184.169Z" stroke="#6AE3EF" stroke-width="1.0402" stroke-miterlimit="10"></path><path d="M246.809 169.013H241.608V174.065H246.809V169.013Z" stroke="#6AE3EF" stroke-width="1.0402" stroke-miterlimit="10"></path><path d="M278.014 179.117H272.813V184.169H278.014V179.117Z" stroke="#6AE3EF" stroke-width="1.0402" stroke-miterlimit="10"></path><path d="M267.612 179.117H262.412V184.169H267.612V179.117Z" stroke="#6AE3EF" stroke-width="1.0402" stroke-miterlimit="10"></path><path d="M272.813 179.117H267.612V184.169H272.813V179.117Z" stroke="#6AE3EF" stroke-width="1.0402" stroke-miterlimit="10"></path><path d="M283.215 179.117H278.014V184.169H283.215V179.117Z" stroke="#6AE3EF" stroke-width="1.0402" stroke-miterlimit="10"></path><path d="M298.818 179.117H293.617V184.169H298.818V179.117Z" stroke="#6AE3EF" stroke-width="1.0402" stroke-miterlimit="10"></path><path d="M293.617 179.117H288.416V184.169H293.617V179.117Z" stroke="#6AE3EF" stroke-width="1.0402" stroke-miterlimit="10"></path><path d="M288.416 179.117H283.215V184.169H288.416V179.117Z" stroke="#6AE3EF" stroke-width="1.0402" stroke-miterlimit="10"></path><path d="M252.01 179.117H246.81V184.169H252.01V179.117Z" stroke="#6AE3EF" stroke-width="1.0402" stroke-miterlimit="10"></path><path d="M262.411 189.221H257.21V194.273H262.411V189.221Z" stroke="#6AE3EF" stroke-width="1.0402" stroke-miterlimit="10"></path><path d="M262.411 179.117H257.21V184.169H262.411V179.117Z" stroke="#6AE3EF" stroke-width="1.0402" stroke-miterlimit="10"></path><path d="M252.01 184.169H246.81V189.221H252.01V184.169Z" stroke="#6AE3EF" stroke-width="1.0402" stroke-miterlimit="10"></path><path d="M257.211 189.221H252.01V194.273H257.211V189.221Z" stroke="#6AE3EF" stroke-width="1.0402" stroke-miterlimit="10"></path><path d="M304.018 179.117H298.817V184.169H304.018V179.117Z" stroke="#6AE3EF" stroke-width="1.0402" stroke-miterlimit="10"></path><path d="M257.211 179.117H252.01V184.169H257.211V179.117Z" stroke="#6AE3EF" stroke-width="1.0402" stroke-miterlimit="10"></path><path d="M252.01 189.221H246.81V194.273H252.01V189.221Z" stroke="#6AE3EF" stroke-width="1.0402" stroke-miterlimit="10"></path><path d="M267.612 184.169H262.412V189.221H267.612V184.169Z" stroke="#6AE3EF" stroke-width="1.0402" stroke-miterlimit="10"></path><path d="M278.014 184.169H272.813V189.221H278.014V184.169Z" stroke="#6AE3EF" stroke-width="1.0402" stroke-miterlimit="10"></path><path d="M272.813 184.169H267.612V189.221H272.813V184.169Z" stroke="#6AE3EF" stroke-width="1.0402" stroke-miterlimit="10"></path><path d="M262.411 184.169H257.21V189.221H262.411V184.169Z" stroke="#6AE3EF" stroke-width="1.0402" stroke-miterlimit="10"></path><path d="M309.219 179.117H304.019V184.169H309.219V179.117Z" stroke="#6AE3EF" stroke-width="1.0402" stroke-miterlimit="10"></path><path d="M257.211 184.169H252.01V189.221H257.211V184.169Z" stroke="#6AE3EF" stroke-width="1.0402" stroke-miterlimit="10"></path><path d="M335.223 158.908H330.022V163.961H335.223V158.908Z" stroke="#6AE3EF" stroke-width="1.0402" stroke-miterlimit="10"></path><path d="M304.018 184.169H298.817V189.221H304.018V184.169Z" stroke="#6AE3EF" stroke-width="1.0402" stroke-miterlimit="10"></path><path d="M283.215 184.169H278.014V189.221H283.215V184.169Z" stroke="#6AE3EF" stroke-width="1.0402" stroke-miterlimit="10"></path><path d="M298.818 184.169H293.617V189.221H298.818V184.169Z" stroke="#6AE3EF" stroke-width="1.0402" stroke-miterlimit="10"></path><path d="M309.219 184.169H304.019V189.221H309.219V184.169Z" stroke="#6AE3EF" stroke-width="1.0402" stroke-miterlimit="10"></path><path d="M288.416 184.169H283.215V189.221H288.416V184.169Z" stroke="#6AE3EF" stroke-width="1.0402" stroke-miterlimit="10"></path><path d="M293.617 184.169H288.416V189.221H293.617V184.169Z" stroke="#6AE3EF" stroke-width="1.0402" stroke-miterlimit="10"></path><path d="M272.813 189.221H267.612V194.273H272.813V189.221Z" stroke="#6AE3EF" stroke-width="1.0402" stroke-miterlimit="10"></path><path d="M278.014 174.065H272.813V179.117H278.014V174.065Z" stroke="#6AE3EF" stroke-width="1.0402" stroke-miterlimit="10"></path><path d="M304.018 174.065H298.817V179.117H304.018V174.065Z" stroke="#6AE3EF" stroke-width="1.0402" stroke-miterlimit="10"></path><path d="M272.813 174.065H267.612V179.117H272.813V174.065Z" stroke="#6AE3EF" stroke-width="1.0402" stroke-miterlimit="10"></path><path d="M288.416 174.065H283.215V179.117H288.416V174.065Z" stroke="#6AE3EF" stroke-width="1.0402" stroke-miterlimit="10"></path><path d="M298.818 174.065H293.617V179.117H298.818V174.065Z" stroke="#6AE3EF" stroke-width="1.0402" stroke-miterlimit="10"></path><path d="M293.617 174.065H288.416V179.117H293.617V174.065Z" stroke="#6AE3EF" stroke-width="1.0402" stroke-miterlimit="10"></path><path d="M267.612 174.065H262.412V179.117H267.612V174.065Z" stroke="#6AE3EF" stroke-width="1.0402" stroke-miterlimit="10"></path><path d="M283.215 174.065H278.014V179.117H283.215V174.065Z" stroke="#6AE3EF" stroke-width="1.0402" stroke-miterlimit="10"></path><path d="M246.809 174.065H241.608V179.117H246.809V174.065Z" stroke="#6AE3EF" stroke-width="1.0402" stroke-miterlimit="10"></path><path d="M246.809 179.117H241.608V184.169H246.809V179.117Z" stroke="#6AE3EF" stroke-width="1.0402" stroke-miterlimit="10"></path><path d="M246.809 184.169H241.608V189.221H246.809V184.169Z" stroke="#6AE3EF" stroke-width="1.0402" stroke-miterlimit="10"></path><path d="M262.411 174.065H257.21V179.117H262.411V174.065Z" stroke="#6AE3EF" stroke-width="1.0402" stroke-miterlimit="10"></path><path d="M252.01 174.065H246.81V179.117H252.01V174.065Z" stroke="#6AE3EF" stroke-width="1.0402" stroke-miterlimit="10"></path><path d="M257.211 174.065H252.01V179.117H257.211V174.065Z" stroke="#6AE3EF" stroke-width="1.0402" stroke-miterlimit="10"></path><path d="M314.42 179.117H309.219V184.169H314.42V179.117Z" stroke="#6AE3EF" stroke-width="1.0402" stroke-miterlimit="10"></path><path d="M309.219 174.065H304.019V179.117H309.219V174.065Z" stroke="#6AE3EF" stroke-width="1.0402" stroke-miterlimit="10"></path><path d="M283.215 189.221H278.014V194.273H283.215V189.221Z" stroke="#6AE3EF" stroke-width="1.0402" stroke-miterlimit="10"></path><path d="M293.617 189.221H288.416V194.273H293.617V189.221Z" stroke="#6AE3EF" stroke-width="1.0402" stroke-miterlimit="10"></path><path d="M246.809 189.221H241.608V194.273H246.809V189.221Z" stroke="#6AE3EF" stroke-width="1.0402" stroke-miterlimit="10"></path><path d="M298.818 189.221H293.617V194.273H298.818V189.221Z" stroke="#6AE3EF" stroke-width="1.0402" stroke-miterlimit="10"></path><path d="M278.014 189.221H272.813V194.273H278.014V189.221Z" stroke="#6AE3EF" stroke-width="1.0402" stroke-miterlimit="10"></path><path d="M288.416 189.221H283.215V194.273H288.416V189.221Z" stroke="#6AE3EF" stroke-width="1.0402" stroke-miterlimit="10"></path><path d="M314.42 184.169H309.219V189.221H314.42V184.169Z" stroke="#6AE3EF" stroke-width="1.0402" stroke-miterlimit="10"></path><path d="M267.612 189.221H262.412V194.273H267.612V189.221Z" stroke="#6AE3EF" stroke-width="1.0402" stroke-miterlimit="10"></path><path d="M314.42 174.065H309.219V179.117H314.42V174.065Z" stroke="#6AE3EF" stroke-width="1.0402" stroke-miterlimit="10"></path><path d="M304.018 189.221H298.817V194.273H304.018V189.221Z" stroke="#6AE3EF" stroke-width="1.0402" stroke-miterlimit="10"></path><path d="M314.42 189.221H309.219V194.273H314.42V189.221Z" stroke="#6AE3EF" stroke-width="1.0402" stroke-miterlimit="10"></path><path d="M309.219 189.221H304.019V194.273H309.219V189.221Z" stroke="#6AE3EF" stroke-width="1.0402" stroke-miterlimit="10"></path><path d="M231.207 184.169H226.006V189.221H231.207V184.169Z" stroke="#6AE3EF" stroke-width="1.0402" stroke-miterlimit="10"></path><path d="M231.207 169.013H226.006V174.065H231.207V169.013Z" stroke="#6AE3EF" stroke-width="1.0402" stroke-miterlimit="10"></path><path d="M246.809 158.908H241.608V163.961H246.809V158.908Z" stroke="#6AE3EF" stroke-width="1.0402" stroke-miterlimit="10"></path><path d="M231.207 163.961H226.006V169.013H231.207V163.961Z" stroke="#6AE3EF" stroke-width="1.0402" stroke-miterlimit="10"></path><path d="M231.207 158.908H226.006V163.961H231.207V158.908Z" stroke="#6AE3EF" stroke-width="1.0402" stroke-miterlimit="10"></path><path d="M241.609 158.908H236.408V163.961H241.609V158.908Z" stroke="#6AE3EF" stroke-width="1.0402" stroke-miterlimit="10"></path><path d="M236.407 158.908H231.207V163.961H236.407V158.908Z" stroke="#6AE3EF" stroke-width="1.0402" stroke-miterlimit="10"></path><path d="M231.207 179.117H226.006V184.169H231.207V179.117Z" stroke="#6AE3EF" stroke-width="1.0402" stroke-miterlimit="10"></path><path d="M231.207 174.065H226.006V179.117H231.207V174.065Z" stroke="#6AE3EF" stroke-width="1.0402" stroke-miterlimit="10"></path><path d="M231.207 209.43H226.006V214.482H231.207V209.43Z" stroke="#6AE3EF" stroke-width="1.0402" stroke-miterlimit="10"></path><path d="M236.407 209.43H231.207V214.482H236.407V209.43Z" stroke="#6AE3EF" stroke-width="1.0402" stroke-miterlimit="10"></path><path d="M231.207 204.378H226.006V209.43H231.207V204.378Z" stroke="#6AE3EF" stroke-width="1.0402" stroke-miterlimit="10"></path><path d="M231.207 194.273H226.006V199.325H231.207V194.273Z" stroke="#6AE3EF" stroke-width="1.0402" stroke-miterlimit="10"></path><path d="M231.207 189.221H226.006V194.273H231.207V189.221Z" stroke="#6AE3EF" stroke-width="1.0402" stroke-miterlimit="10"></path><path d="M231.207 199.325H226.006V204.378H231.207V199.325Z" stroke="#6AE3EF" stroke-width="1.0402" stroke-miterlimit="10"></path><path d="M304.018 158.908H298.817V163.961H304.018V158.908Z" stroke="#6AE3EF" stroke-width="1.0402" stroke-miterlimit="10"></path><path d="M298.818 158.908H293.617V163.961H298.818V158.908Z" stroke="#6AE3EF" stroke-width="1.0402" stroke-miterlimit="10"></path><path d="M241.609 209.43H236.408V214.482H241.609V209.43Z" stroke="#6AE3EF" stroke-width="1.0402" stroke-miterlimit="10"></path><path d="M252.01 158.908H246.81V163.961H252.01V158.908Z" stroke="#6AE3EF" stroke-width="1.0402" stroke-miterlimit="10"></path><path d="M293.617 158.908H288.416V163.961H293.617V158.908Z" stroke="#6AE3EF" stroke-width="1.0402" stroke-miterlimit="10"></path><path d="M314.42 158.908H309.219V163.961H314.42V158.908Z" stroke="#6AE3EF" stroke-width="1.0402" stroke-miterlimit="10"></path><path d="M309.219 158.908H304.019V163.961H309.219V158.908Z" stroke="#6AE3EF" stroke-width="1.0402" stroke-miterlimit="10"></path><path d="M288.416 158.908H283.215V163.961H288.416V158.908Z" stroke="#6AE3EF" stroke-width="1.0402" stroke-miterlimit="10"></path><path d="M262.411 158.908H257.21V163.961H262.411V158.908Z" stroke="#6AE3EF" stroke-width="1.0402" stroke-miterlimit="10"></path><path d="M257.211 158.908H252.01V163.961H257.211V158.908Z" stroke="#6AE3EF" stroke-width="1.0402" stroke-miterlimit="10"></path><path d="M267.612 158.908H262.412V163.961H267.612V158.908Z" stroke="#6AE3EF" stroke-width="1.0402" stroke-miterlimit="10"></path><path d="M278.014 158.908H272.813V163.961H278.014V158.908Z" stroke="#6AE3EF" stroke-width="1.0402" stroke-miterlimit="10"></path><path d="M283.215 158.908H278.014V163.961H283.215V158.908Z" stroke="#6AE3EF" stroke-width="1.0402" stroke-miterlimit="10"></path><path d="M272.813 158.908H267.612V163.961H272.813V158.908Z" stroke="#6AE3EF" stroke-width="1.0402" stroke-miterlimit="10"></path><path d="M335.223 209.43H330.022V214.482H335.223V209.43Z" stroke="#6AE3EF" stroke-width="1.0402" stroke-miterlimit="10"></path><path d="M335.223 199.325H330.022V204.378H335.223V199.325Z" stroke="#6AE3EF" stroke-width="1.0402" stroke-miterlimit="10"></path><path d="M335.223 204.378H330.022V209.43H335.223V204.378Z" stroke="#6AE3EF" stroke-width="1.0402" stroke-miterlimit="10"></path><path d="M335.223 194.273H330.022V199.325H335.223V194.273Z" stroke="#6AE3EF" stroke-width="1.0402" stroke-miterlimit="10"></path><path d="M330.022 209.43H324.821V214.482H330.022V209.43Z" stroke="#6AE3EF" stroke-width="1.0402" stroke-miterlimit="10"></path><path d="M324.822 209.43H319.621V214.482H324.822V209.43Z" stroke="#6AE3EF" stroke-width="1.0402" stroke-miterlimit="10"></path><path d="M335.223 189.221H330.022V194.273H335.223V189.221Z" stroke="#6AE3EF" stroke-width="1.0402" stroke-miterlimit="10"></path><path d="M319.621 158.908H314.42V163.961H319.621V158.908Z" stroke="#6AE3EF" stroke-width="1.0402" stroke-miterlimit="10"></path><path d="M335.223 174.065H330.022V179.117H335.223V174.065Z" stroke="#6AE3EF" stroke-width="1.0402" stroke-miterlimit="10"></path><path d="M335.223 163.961H330.022V169.013H335.223V163.961Z" stroke="#6AE3EF" stroke-width="1.0402" stroke-miterlimit="10"></path><path d="M246.809 209.43H241.608V214.482H246.809V209.43Z" stroke="#6AE3EF" stroke-width="1.0402" stroke-miterlimit="10"></path><path d="M319.621 209.43H314.42V214.482H319.621V209.43Z" stroke="#6AE3EF" stroke-width="1.0402" stroke-miterlimit="10"></path><path d="M335.223 179.117H330.022V184.169H335.223V179.117Z" stroke="#6AE3EF" stroke-width="1.0402" stroke-miterlimit="10"></path><path d="M335.223 184.169H330.022V189.221H335.223V184.169Z" stroke="#6AE3EF" stroke-width="1.0402" stroke-miterlimit="10"></path><path d="M335.223 169.013H330.022V174.065H335.223V169.013Z" stroke="#6AE3EF" stroke-width="1.0402" stroke-miterlimit="10"></path><path d="M267.612 209.43H262.412V214.482H267.612V209.43Z" stroke="#6AE3EF" stroke-width="1.0402" stroke-miterlimit="10"></path><path d="M272.813 209.43H267.612V214.482H272.813V209.43Z" stroke="#6AE3EF" stroke-width="1.0402" stroke-miterlimit="10"></path><path d="M262.411 209.43H257.21V214.482H262.411V209.43Z" stroke="#6AE3EF" stroke-width="1.0402" stroke-miterlimit="10"></path><path d="M257.211 209.43H252.01V214.482H257.211V209.43Z" stroke="#6AE3EF" stroke-width="1.0402" stroke-miterlimit="10"></path><path d="M314.42 209.43H309.219V214.482H314.42V209.43Z" stroke="#6AE3EF" stroke-width="1.0402" stroke-miterlimit="10"></path><path d="M252.01 209.43H246.81V214.482H252.01V209.43Z" stroke="#6AE3EF" stroke-width="1.0402" stroke-miterlimit="10"></path><path d="M278.014 209.43H272.813V214.482H278.014V209.43Z" stroke="#6AE3EF" stroke-width="1.0402" stroke-miterlimit="10"></path><path d="M298.818 209.43H293.617V214.482H298.818V209.43Z" stroke="#6AE3EF" stroke-width="1.0402" stroke-miterlimit="10"></path><path d="M304.018 209.43H298.817V214.482H304.018V209.43Z" stroke="#6AE3EF" stroke-width="1.0402" stroke-miterlimit="10"></path><path d="M283.215 209.43H278.014V214.482H283.215V209.43Z" stroke="#6AE3EF" stroke-width="1.0402" stroke-miterlimit="10"></path><path d="M309.219 209.43H304.019V214.482H309.219V209.43Z" stroke="#6AE3EF" stroke-width="1.0402" stroke-miterlimit="10"></path><path d="M293.617 209.43H288.416V214.482H293.617V209.43Z" stroke="#6AE3EF" stroke-width="1.0402" stroke-miterlimit="10"></path><path d="M288.416 209.43H283.215V214.482H288.416V209.43Z" stroke="#6AE3EF" stroke-width="1.0402" stroke-miterlimit="10"></path><path d="M293.617 163.961H288.416V169.013H293.617V163.961Z" stroke="#6AE3EF" stroke-width="1.0402" stroke-miterlimit="10"></path><path d="M246.809 163.961H241.608V169.013H246.809V163.961Z" stroke="#6AE3EF" stroke-width="1.0402" stroke-miterlimit="10"></path><path d="M252.01 163.961H246.81V169.013H252.01V163.961Z" stroke="#6AE3EF" stroke-width="1.0402" stroke-miterlimit="10"></path><path d="M241.609 163.961H236.408V169.013H241.609V163.961Z" stroke="#6AE3EF" stroke-width="1.0402" stroke-miterlimit="10"></path><path d="M272.813 163.961H267.612V169.013H272.813V163.961Z" stroke="#6AE3EF" stroke-width="1.0402" stroke-miterlimit="10"></path><path d="M267.612 163.961H262.412V169.013H267.612V163.961Z" stroke="#6AE3EF" stroke-width="1.0402" stroke-miterlimit="10"></path><path d="M236.407 163.961H231.207V169.013H236.407V163.961Z" stroke="#6AE3EF" stroke-width="1.0402" stroke-miterlimit="10"></path><path d="M262.411 163.961H257.21V169.013H262.411V163.961Z" stroke="#6AE3EF" stroke-width="1.0402" stroke-miterlimit="10"></path><path d="M257.211 163.961H252.01V169.013H257.211V163.961Z" stroke="#6AE3EF" stroke-width="1.0402" stroke-miterlimit="10"></path><path d="M236.407 169.013H231.207V174.065H236.407V169.013Z" stroke="#6AE3EF" stroke-width="1.0402" stroke-miterlimit="10"></path><path d="M236.407 184.169H231.207V189.221H236.407V184.169Z" stroke="#6AE3EF" stroke-width="1.0402" stroke-miterlimit="10"></path><path d="M236.407 194.273H231.207V199.325H236.407V194.273Z" stroke="#6AE3EF" stroke-width="1.0402" stroke-miterlimit="10"></path><path d="M236.407 189.221H231.207V194.273H236.407V189.221Z" stroke="#6AE3EF" stroke-width="1.0402" stroke-miterlimit="10"></path><path d="M236.407 174.065H231.207V179.117H236.407V174.065Z" stroke="#6AE3EF" stroke-width="1.0402" stroke-miterlimit="10"></path><path d="M236.407 179.117H231.207V184.169H236.407V179.117Z" stroke="#6AE3EF" stroke-width="1.0402" stroke-miterlimit="10"></path><path d="M278.014 163.961H272.813V169.013H278.014V163.961Z" stroke="#6AE3EF" stroke-width="1.0402" stroke-miterlimit="10"></path><path d="M324.822 169.013H319.621V174.065H324.822V169.013Z" stroke="#6AE3EF" stroke-width="1.0402" stroke-miterlimit="10"></path><path d="M324.822 163.961H319.621V169.013H324.822V163.961Z" stroke="#6AE3EF" stroke-width="1.0402" stroke-miterlimit="10"></path><path d="M319.621 163.961H314.42V169.013H319.621V163.961Z" stroke="#6AE3EF" stroke-width="1.0402" stroke-miterlimit="10"></path><path d="M324.822 174.065H319.621V179.117H324.822V174.065Z" stroke="#6AE3EF" stroke-width="1.0402" stroke-miterlimit="10"></path><path d="M324.822 179.117H319.621V184.169H324.822V179.117Z" stroke="#6AE3EF" stroke-width="1.0402" stroke-miterlimit="10"></path><path d="M314.42 163.961H309.219V169.013H314.42V163.961Z" stroke="#6AE3EF" stroke-width="1.0402" stroke-miterlimit="10"></path><path d="M283.215 163.961H278.014V169.013H283.215V163.961Z" stroke="#6AE3EF" stroke-width="1.0402" stroke-miterlimit="10"></path><path d="M288.416 163.961H283.215V169.013H288.416V163.961Z" stroke="#6AE3EF" stroke-width="1.0402" stroke-miterlimit="10"></path><path d="M236.407 199.325H231.207V204.378H236.407V199.325Z" stroke="#6AE3EF" stroke-width="1.0402" stroke-miterlimit="10"></path><path d="M309.219 163.961H304.019V169.013H309.219V163.961Z" stroke="#6AE3EF" stroke-width="1.0402" stroke-miterlimit="10"></path><path d="M324.822 184.169H319.621V189.221H324.822V184.169Z" stroke="#6AE3EF" stroke-width="1.0402" stroke-miterlimit="10"></path><path d="M304.018 163.961H298.817V169.013H304.018V163.961Z" stroke="#6AE3EF" stroke-width="1.0402" stroke-miterlimit="10"></path><path d="M298.818 163.961H293.617V169.013H298.818V163.961Z" stroke="#6AE3EF" stroke-width="1.0402" stroke-miterlimit="10"></path><path d="M278.014 204.378H272.813V209.43H278.014V204.378Z" stroke="#6AE3EF" stroke-width="1.0402" stroke-miterlimit="10"></path><path d="M330.022 189.221H324.821V194.273H330.022V189.221Z" stroke="#6AE3EF" stroke-width="1.0402" stroke-miterlimit="10"></path><path d="M330.022 199.325H324.821V204.378H330.022V199.325Z" stroke="#6AE3EF" stroke-width="1.0402" stroke-miterlimit="10"></path><path d="M330.022 194.273H324.821V199.325H330.022V194.273Z" stroke="#6AE3EF" stroke-width="1.0402" stroke-miterlimit="10"></path><path d="M330.022 204.378H324.821V209.43H330.022V204.378Z" stroke="#6AE3EF" stroke-width="1.0402" stroke-miterlimit="10"></path><path d="M324.822 204.378H319.621V209.43H324.822V204.378Z" stroke="#6AE3EF" stroke-width="1.0402" stroke-miterlimit="10"></path><path d="M314.42 204.378H309.219V209.43H314.42V204.378Z" stroke="#6AE3EF" stroke-width="1.0402" stroke-miterlimit="10"></path><path d="M319.621 204.378H314.42V209.43H319.621V204.378Z" stroke="#6AE3EF" stroke-width="1.0402" stroke-miterlimit="10"></path><path d="M330.022 174.065H324.821V179.117H330.022V174.065Z" stroke="#6AE3EF" stroke-width="1.0402" stroke-miterlimit="10"></path><path d="M330.022 163.961H324.821V169.013H330.022V163.961Z" stroke="#6AE3EF" stroke-width="1.0402" stroke-miterlimit="10"></path><path d="M330.022 169.013H324.821V174.065H330.022V169.013Z" stroke="#6AE3EF" stroke-width="1.0402" stroke-miterlimit="10"></path><path d="M330.022 158.908H324.821V163.961H330.022V158.908Z" stroke="#6AE3EF" stroke-width="1.0402" stroke-miterlimit="10"></path><path d="M330.022 179.117H324.821V184.169H330.022V179.117Z" stroke="#6AE3EF" stroke-width="1.0402" stroke-miterlimit="10"></path><path d="M330.022 184.169H324.821V189.221H330.022V184.169Z" stroke="#6AE3EF" stroke-width="1.0402" stroke-miterlimit="10"></path><path d="M309.219 204.378H304.019V209.43H309.219V204.378Z" stroke="#6AE3EF" stroke-width="1.0402" stroke-miterlimit="10"></path><path d="M288.416 204.378H283.215V209.43H288.416V204.378Z" stroke="#6AE3EF" stroke-width="1.0402" stroke-miterlimit="10"></path><path d="M257.211 204.378H252.01V209.43H257.211V204.378Z" stroke="#6AE3EF" stroke-width="1.0402" stroke-miterlimit="10"></path><path d="M262.411 204.378H257.21V209.43H262.411V204.378Z" stroke="#6AE3EF" stroke-width="1.0402" stroke-miterlimit="10"></path><path d="M252.01 204.378H246.81V209.43H252.01V204.378Z" stroke="#6AE3EF" stroke-width="1.0402" stroke-miterlimit="10"></path><path d="M246.809 204.378H241.608V209.43H246.809V204.378Z" stroke="#6AE3EF" stroke-width="1.0402" stroke-miterlimit="10"></path><path d="M304.018 204.378H298.817V209.43H304.018V204.378Z" stroke="#6AE3EF" stroke-width="1.0402" stroke-miterlimit="10"></path><path d="M241.609 204.378H236.408V209.43H241.609V204.378Z" stroke="#6AE3EF" stroke-width="1.0402" stroke-miterlimit="10"></path><path d="M267.612 204.378H262.412V209.43H267.612V204.378Z" stroke="#6AE3EF" stroke-width="1.0402" stroke-miterlimit="10"></path><path d="M293.617 204.378H288.416V209.43H293.617V204.378Z" stroke="#6AE3EF" stroke-width="1.0402" stroke-miterlimit="10"></path><path d="M298.818 204.378H293.617V209.43H298.818V204.378Z" stroke="#6AE3EF" stroke-width="1.0402" stroke-miterlimit="10"></path><path d="M236.407 204.378H231.207V209.43H236.407V204.378Z" stroke="#6AE3EF" stroke-width="1.0402" stroke-miterlimit="10"></path><path d="M283.215 204.378H278.014V209.43H283.215V204.378Z" stroke="#6AE3EF" stroke-width="1.0402" stroke-miterlimit="10"></path><path d="M272.813 204.378H267.612V209.43H272.813V204.378Z" stroke="#6AE3EF" stroke-width="1.0402" stroke-miterlimit="10"></path><path d="M324.822 158.908H319.621V163.961H324.822V158.908Z" stroke="#6AE3EF" stroke-width="1.0402" stroke-miterlimit="10"></path><path d="M319.674 194.29L319.645 194.218L334.903 189.299L334.932 189.371L319.674 194.29Z" fill="#0055FF" stroke="#0000FF" stroke-width="1.0402" stroke-miterlimit="10"></path><path d="M304.058 204.382L304.009 204.321L319.39 194.382L319.44 194.443L304.058 204.382Z" fill="#0055FF" stroke="#0000FF" stroke-width="1.0402" stroke-miterlimit="10"></path><path d="M303.735 204.296L288.392 199.376L288.421 199.305L303.763 204.224L303.735 204.296Z" fill="#0055FF" stroke="#0000FF" stroke-width="1.0402" stroke-miterlimit="10"></path><path d="M288.105 199.303H272.78V199.379H288.105V199.303Z" fill="#0055FF" stroke="#0000FF" stroke-width="1.0402" stroke-miterlimit="10"></path><path d="M257.252 204.387L257.223 204.316L272.481 199.396L272.51 199.468L257.252 204.387Z" fill="#0055FF" stroke="#0000FF" stroke-width="1.0402" stroke-miterlimit="10"></path><path d="M256.939 204.296L241.597 199.376L241.625 199.305L256.967 204.224L256.939 204.296Z" fill="#0055FF" stroke="#0000FF" stroke-width="1.0402" stroke-miterlimit="10"></path><path d="M226.016 214.475L225.954 214.423L241.375 199.513L241.437 199.565L226.016 214.475Z" fill="#0055FF" stroke="#0000FF" stroke-width="1.0402" stroke-miterlimit="10"></path><path d="M335.224 190.146C335.72 189.986 335.977 189.495 335.799 189.05C335.622 188.605 335.076 188.374 334.581 188.534C334.086 188.693 333.828 189.184 334.006 189.629C334.184 190.074 334.729 190.305 335.224 190.146Z" fill="#0055FF"></path><path d="M319.958 195.116C320.385 194.84 320.482 194.305 320.175 193.921C319.868 193.537 319.273 193.449 318.845 193.725C318.418 194.001 318.321 194.537 318.628 194.92C318.935 195.304 319.531 195.392 319.958 195.116Z" fill="#0055FF"></path><path d="M303.414 205.062C303.909 205.221 304.454 204.988 304.631 204.543C304.808 204.098 304.549 203.608 304.054 203.449C303.558 203.29 303.013 203.522 302.836 203.968C302.66 204.413 302.918 204.903 303.414 205.062Z" fill="#0055FF"></path><path d="M288.089 200.197C288.615 200.197 289.042 199.813 289.042 199.34C289.042 198.868 288.615 198.484 288.089 198.484C287.563 198.484 287.136 198.868 287.136 199.34C287.136 199.813 287.563 200.197 288.089 200.197Z" fill="#0055FF"></path><path d="M272.803 200.243C273.298 200.083 273.555 199.593 273.378 199.148C273.2 198.703 272.654 198.471 272.159 198.631C271.664 198.791 271.406 199.281 271.584 199.726C271.762 200.171 272.307 200.403 272.803 200.243Z" fill="#0055FF"></path><path d="M256.619 205.062C257.114 205.221 257.659 204.988 257.836 204.543C258.013 204.098 257.754 203.608 257.259 203.449C256.763 203.29 256.218 203.522 256.041 203.968C255.865 204.413 256.123 204.903 256.619 205.062Z" fill="#0055FF"></path><path d="M242.092 200.133C242.451 199.786 242.429 199.245 242.043 198.923C241.658 198.6 241.055 198.62 240.697 198.967C240.339 199.313 240.361 199.855 240.746 200.177C241.131 200.499 241.734 200.479 242.092 200.133Z" fill="#0055FF"></path><path d="M320.265 189.279L320.237 189.208L335.495 184.288L335.523 184.36L320.265 189.279Z" fill="#F6471E"></path><path d="M304.64 194.442L304.61 194.37L319.954 189.301L319.983 189.372L304.64 194.442Z" fill="#F6471E"></path><path d="M304.323 194.442L288.998 194.368L288.999 194.292L304.323 194.366L304.323 194.442Z" fill="#F6471E"></path><path d="M273.402 209.464L273.34 209.412L288.761 194.503L288.823 194.554L273.402 209.464Z" fill="#F6471E"></path><path d="M273.101 209.311L257.762 199.409L257.811 199.348L273.151 209.249L273.101 209.311Z" fill="#F6471E"></path><path d="M242.185 209.507L242.136 209.445L257.517 199.506L257.567 199.568L242.185 209.507Z" fill="#F6471E"></path><path d="M241.859 209.438H226.618V209.514H241.859V209.438Z" fill="#F6471E"></path><path d="M335.816 185.135C336.311 184.975 336.569 184.485 336.391 184.04C336.214 183.595 335.668 183.363 335.173 183.523C334.678 183.683 334.42 184.173 334.598 184.618C334.775 185.063 335.321 185.295 335.816 185.135Z" fill="#F6471E"></path><path d="M320.282 190.145C320.776 189.982 321.029 189.49 320.847 189.046C320.666 188.602 320.118 188.375 319.624 188.538C319.131 188.701 318.877 189.193 319.059 189.637C319.24 190.081 319.788 190.309 320.282 190.145Z" fill="#F6471E"></path><path d="M304.302 195.26C304.828 195.263 305.257 194.882 305.259 194.409C305.262 193.936 304.838 193.55 304.312 193.548C303.786 193.545 303.357 193.927 303.354 194.4C303.351 194.872 303.776 195.258 304.302 195.26Z" fill="#F6471E"></path><path d="M289.48 195.122C289.838 194.776 289.816 194.234 289.43 193.912C289.045 193.59 288.442 193.609 288.084 193.956C287.726 194.302 287.748 194.844 288.133 195.166C288.518 195.488 289.121 195.468 289.48 195.122Z" fill="#F6471E"></path><path d="M272.558 209.967C272.985 210.243 273.58 210.155 273.887 209.771C274.194 209.387 274.096 208.852 273.669 208.576C273.242 208.3 272.647 208.388 272.34 208.772C272.033 209.156 272.13 209.691 272.558 209.967Z" fill="#F6471E"></path><path d="M258.086 200.24C258.513 199.964 258.61 199.429 258.303 199.045C257.996 198.661 257.4 198.574 256.973 198.85C256.546 199.126 256.449 199.661 256.756 200.045C257.063 200.429 257.658 200.516 258.086 200.24Z" fill="#F6471E"></path><path d="M241.843 210.332C242.369 210.332 242.796 209.949 242.796 209.476C242.796 209.003 242.369 208.619 241.843 208.619C241.317 208.619 240.89 209.003 240.89 209.476C240.89 209.949 241.317 210.332 241.843 210.332Z" fill="#F6471E"></path><path d="M319.776 184.106L319.713 184.055L335.051 169.071L335.113 169.122L319.776 184.106Z" fill="#0055FF"></path><path d="M335.773 169.687C336.129 169.339 336.104 168.797 335.717 168.477C335.329 168.157 334.727 168.179 334.37 168.527C334.014 168.875 334.039 169.417 334.426 169.737C334.814 170.057 335.416 170.035 335.773 169.687Z" fill="#0055FF"></path><path d="M319.447 184.024L304.104 179.03L304.132 178.958L319.475 183.953L319.447 184.024Z" fill="#0055FF"></path><path d="M319.121 184.789C319.616 184.95 320.162 184.72 320.341 184.275C320.521 183.831 320.265 183.339 319.77 183.178C319.275 183.017 318.729 183.247 318.55 183.692C318.371 184.137 318.627 184.628 319.121 184.789Z" fill="#0055FF"></path><path d="M288.516 189.122L288.466 189.061L303.848 179.122L303.897 179.183L288.516 189.122Z" fill="#0055FF"></path><path d="M304.416 179.856C304.843 179.58 304.941 179.045 304.634 178.661C304.326 178.277 303.731 178.189 303.304 178.466C302.877 178.741 302.779 179.277 303.086 179.661C303.394 180.045 303.989 180.132 304.416 179.856Z" fill="#0055FF"></path><path d="M288.221 188.964L272.839 179.025L272.889 178.963L288.27 188.902L288.221 188.964Z" fill="#0055FF"></path><path d="M287.677 189.62C288.104 189.896 288.7 189.809 289.007 189.425C289.314 189.041 289.216 188.506 288.789 188.23C288.362 187.954 287.767 188.041 287.46 188.425C287.152 188.809 287.25 189.344 287.677 189.62Z" fill="#0055FF"></path><path d="M257.336 184.116L257.308 184.045L272.566 179.051L272.595 179.123L257.336 184.116Z" fill="#0055FF"></path><path d="M272.892 179.896C273.387 179.735 273.641 179.243 273.461 178.799C273.282 178.354 272.735 178.125 272.24 178.287C271.746 178.449 271.491 178.94 271.671 179.385C271.851 179.829 272.398 180.058 272.892 179.896Z" fill="#0055FF"></path><path d="M241.72 194.209L241.671 194.147L257.053 184.208L257.102 184.27L241.72 194.209Z" fill="#0055FF"></path><path d="M257.621 184.943C258.048 184.667 258.145 184.131 257.838 183.748C257.531 183.364 256.936 183.276 256.508 183.552C256.081 183.828 255.984 184.363 256.291 184.747C256.598 185.131 257.194 185.219 257.621 184.943Z" fill="#0055FF"></path><path d="M241.394 194.14H226.069V194.216H241.394V194.14Z" fill="#0055FF"></path><path d="M241.378 195.034C241.904 195.034 242.331 194.651 242.331 194.178C242.331 193.705 241.904 193.322 241.378 193.322C240.852 193.322 240.425 193.705 240.425 194.178C240.425 194.651 240.852 195.034 241.378 195.034Z" fill="#0055FF"></path><path d="M246.282 265.588C244.064 265.588 242.267 263.792 242.267 261.576C242.267 259.361 244.064 257.564 246.282 257.564C248.5 257.564 250.298 259.361 250.298 261.576C250.298 263.792 248.5 265.588 246.282 265.588Z" fill="#F6471E"></path><path d="M246.282 246.924C244.064 246.924 242.267 245.128 242.267 242.912C242.267 240.696 244.064 238.9 246.282 238.9C248.5 238.9 250.298 240.696 250.298 242.912C250.298 245.128 248.5 246.924 246.282 246.924Z" fill="#0055FF"></path><path d="M246.282 284.253C244.064 284.253 242.267 282.457 242.267 280.241C242.267 278.025 244.064 276.229 246.282 276.229C248.5 276.229 250.298 278.025 250.298 280.241C250.298 282.457 248.5 284.253 246.282 284.253Z" fill="#FEBF50"></path><path d="M256.001 240.353H319.088" stroke="#B487FE" stroke-width="15" stroke-miterlimit="10"></path><path d="M256.001 245.47H297.322" stroke="#B487FE" stroke-width="15" stroke-miterlimit="10"></path><path d="M256.001 259.018H319.088" stroke="#B487FE" stroke-width="15" stroke-miterlimit="10"></path><path d="M256.001 264.135H278.117" stroke="#B487FE" stroke-width="15" stroke-miterlimit="10"></path><path d="M256.001 277.683H319.088" stroke="#B487FE" stroke-width="15" stroke-miterlimit="10"></path><path d="M256.001 282.799H310.941" stroke="#B487FE" stroke-width="15" stroke-miterlimit="10"></path><path d="M216.542 154.364H99.2153V284.253H216.542V154.364Z" fill="#F9FBFD"></path><path d="M127.684 162.501H121.166V276.116H127.684V162.501Z" fill="#E3E9F7"></path><path d="M136.414 162.501H129.896V276.116H136.414V162.501Z" fill="#E3E9F7"></path><path d="M145.144 162.501H138.625V276.116H145.144V162.501Z" fill="#E3E9F7"></path><path d="M153.874 162.501H147.355V276.116H153.874V162.501Z" fill="#E3E9F7"></path><path d="M162.603 162.501H156.085V276.116H162.603V162.501Z" fill="#E3E9F7"></path><path d="M171.333 162.501H164.815V276.116H171.333V162.501Z" fill="#E3E9F7"></path><path d="M180.063 162.501H173.544V276.116H180.063V162.501Z" fill="#E3E9F7"></path><path d="M188.793 162.501H182.274V276.116H188.793V162.501Z" fill="#E3E9F7"></path><path d="M197.522 162.501H191.004V276.116H197.522V162.501Z" fill="#E3E9F7"></path><path d="M206.252 162.501H199.733V276.116H206.252V162.501Z" fill="#E3E9F7"></path><path d="M127.684 207.044H121.166V276.116H127.684V207.044Z" fill="#FC4C4D"></path><path d="M136.414 221.115H129.896V276.116H136.414V221.115Z" fill="#FC4C4D"></path><path d="M145.144 249.839H138.625V276.116H145.144V249.839Z" fill="#FC4C4D"></path><path d="M153.874 235.838H147.355V276.116H153.874V235.838Z" fill="#FC4C4D"></path><path d="M162.603 249.839H156.085V276.116H162.603V249.839Z" fill="#FC4C4D"></path><path d="M171.333 191.266H164.815V276.116H171.333V191.266Z" fill="#FC4C4D"></path><path d="M180.063 173.552H173.544V276.116H180.063V173.552Z" fill="#FC4C4D"></path><path d="M188.793 225.534H182.274V276.116H188.793V225.534Z" fill="#FC4C4D"></path><path d="M197.522 207.044H191.004V276.116H197.522V207.044Z" fill="#FC4C4D"></path><path d="M206.252 192.624H199.733V276.116H206.252V192.624Z" fill="#FC4C4D"></path><path d="M112.345 264.908H110.655V264.605L111.298 263.959C111.487 263.765 111.613 263.627 111.675 263.546C111.737 263.465 111.782 263.389 111.811 263.317C111.839 263.245 111.854 263.169 111.854 263.087C111.854 262.974 111.82 262.886 111.752 262.821C111.684 262.756 111.591 262.724 111.472 262.724C111.376 262.724 111.284 262.742 111.195 262.777C111.105 262.812 111.002 262.876 110.885 262.968L110.669 262.704C110.807 262.587 110.942 262.504 111.073 262.455C111.203 262.406 111.343 262.382 111.49 262.382C111.722 262.382 111.908 262.442 112.048 262.563C112.188 262.684 112.258 262.847 112.258 263.051C112.258 263.164 112.238 263.27 112.197 263.371C112.157 263.472 112.095 263.577 112.011 263.684C111.928 263.791 111.789 263.936 111.594 264.119L111.161 264.538V264.555H112.345V264.908Z" fill="#FC4C4D"></path><path d="M114.338 263.663C114.338 264.096 114.268 264.417 114.129 264.627C113.99 264.837 113.777 264.942 113.49 264.942C113.213 264.942 113.003 264.834 112.859 264.617C112.716 264.4 112.645 264.082 112.645 263.663C112.645 263.224 112.714 262.9 112.853 262.691C112.993 262.483 113.205 262.379 113.49 262.379C113.769 262.379 113.979 262.488 114.123 262.706C114.266 262.924 114.338 263.243 114.338 263.663ZM113.051 263.663C113.051 264.003 113.085 264.245 113.155 264.39C113.225 264.536 113.337 264.609 113.49 264.609C113.644 264.609 113.756 264.535 113.827 264.387C113.898 264.24 113.934 263.998 113.934 263.663C113.934 263.329 113.898 263.088 113.827 262.938C113.756 262.789 113.644 262.714 113.49 262.714C113.337 262.714 113.225 262.788 113.155 262.934C113.086 263.081 113.051 263.324 113.051 263.663Z" fill="#FC4C4D"></path><path d="M112.434 250.152H112.098V250.695H111.707V250.152H110.568V249.844L111.707 248.198H112.098V249.82H112.434V250.152ZM111.707 249.82V249.195C111.707 248.972 111.713 248.79 111.724 248.648H111.711C111.679 248.723 111.629 248.814 111.561 248.92L110.942 249.82H111.707Z" fill="#FC4C4D"></path><path d="M114.338 249.45C114.338 249.883 114.268 250.204 114.129 250.414C113.99 250.625 113.777 250.73 113.49 250.73C113.213 250.73 113.003 250.621 112.859 250.404C112.716 250.187 112.645 249.869 112.645 249.45C112.645 249.011 112.714 248.687 112.853 248.479C112.993 248.27 113.205 248.166 113.49 248.166C113.769 248.166 113.979 248.275 114.123 248.493C114.266 248.711 114.338 249.03 114.338 249.45ZM113.051 249.45C113.051 249.79 113.085 250.032 113.155 250.178C113.225 250.323 113.337 250.396 113.49 250.396C113.644 250.396 113.756 250.322 113.827 250.174C113.898 250.027 113.934 249.785 113.934 249.45C113.934 249.116 113.898 248.875 113.827 248.725C113.756 248.576 113.644 248.502 113.49 248.502C113.337 248.502 113.225 248.575 113.155 248.721C113.086 248.868 113.051 249.111 113.051 249.45Z" fill="#FC4C4D"></path><path d="M110.662 235.436C110.662 234.462 111.059 233.975 111.854 233.975C111.979 233.975 112.085 233.984 112.171 234.004V234.337C112.085 234.312 111.985 234.3 111.871 234.3C111.604 234.3 111.403 234.372 111.269 234.515C111.135 234.658 111.062 234.887 111.051 235.203H111.071C111.125 235.111 111.2 235.04 111.296 234.989C111.393 234.939 111.507 234.913 111.637 234.913C111.864 234.913 112.04 234.983 112.166 235.121C112.292 235.26 112.355 235.448 112.355 235.685C112.355 235.946 112.282 236.153 112.136 236.304C111.99 236.456 111.791 236.532 111.539 236.532C111.36 236.532 111.205 236.489 111.073 236.403C110.941 236.317 110.84 236.192 110.769 236.028C110.698 235.864 110.662 235.667 110.662 235.436ZM111.532 236.201C111.669 236.201 111.775 236.157 111.85 236.068C111.924 235.979 111.961 235.853 111.961 235.688C111.961 235.545 111.926 235.433 111.856 235.351C111.786 235.269 111.682 235.228 111.542 235.228C111.455 235.228 111.376 235.247 111.303 235.284C111.23 235.321 111.173 235.371 111.131 235.435C111.089 235.5 111.068 235.565 111.068 235.632C111.068 235.792 111.111 235.927 111.198 236.037C111.285 236.146 111.396 236.201 111.532 236.201Z" fill="#FC4C4D"></path><path d="M114.338 235.252C114.338 235.685 114.269 236.006 114.129 236.216C113.99 236.426 113.777 236.531 113.491 236.531C113.213 236.531 113.003 236.423 112.86 236.206C112.717 235.989 112.645 235.671 112.645 235.252C112.645 234.812 112.715 234.489 112.854 234.28C112.993 234.072 113.205 233.968 113.491 233.968C113.769 233.968 113.98 234.077 114.123 234.295C114.267 234.512 114.338 234.832 114.338 235.252ZM113.051 235.252C113.051 235.591 113.086 235.834 113.156 235.979C113.226 236.125 113.337 236.197 113.491 236.197C113.644 236.197 113.757 236.123 113.828 235.976C113.899 235.828 113.934 235.587 113.934 235.252C113.934 234.918 113.899 234.676 113.828 234.527C113.757 234.378 113.644 234.303 113.491 234.303C113.337 234.303 113.226 234.376 113.156 234.523C113.086 234.669 113.051 234.912 113.051 235.252Z" fill="#FC4C4D"></path><path d="M111.498 219.776C111.734 219.776 111.921 219.83 112.058 219.939C112.196 220.047 112.265 220.192 112.265 220.374C112.265 220.629 112.111 220.833 111.804 220.984C112 221.081 112.139 221.184 112.221 221.292C112.304 221.4 112.345 221.52 112.345 221.653C112.345 221.859 112.269 222.023 112.118 222.147C111.967 222.271 111.762 222.333 111.504 222.333C111.234 222.333 111.024 222.275 110.875 222.159C110.726 222.043 110.652 221.879 110.652 221.667C110.652 221.528 110.691 221.404 110.769 221.293C110.847 221.182 110.974 221.084 111.151 220.997C110.999 220.906 110.891 220.811 110.826 220.709C110.761 220.608 110.729 220.495 110.729 220.369C110.729 220.188 110.8 220.044 110.942 219.937C111.084 219.83 111.269 219.776 111.498 219.776ZM111.035 221.653C111.035 221.771 111.077 221.863 111.16 221.928C111.243 221.994 111.355 222.026 111.497 222.026C111.644 222.026 111.758 221.992 111.839 221.925C111.921 221.857 111.961 221.766 111.961 221.65C111.961 221.558 111.924 221.474 111.849 221.398C111.774 221.322 111.66 221.251 111.508 221.186L111.458 221.164C111.308 221.23 111.2 221.303 111.134 221.381C111.068 221.46 111.035 221.551 111.035 221.653ZM111.494 220.084C111.381 220.084 111.289 220.112 111.22 220.169C111.15 220.225 111.116 220.301 111.116 220.398C111.116 220.457 111.128 220.51 111.153 220.556C111.178 220.603 111.215 220.645 111.262 220.683C111.31 220.721 111.391 220.767 111.504 220.82C111.641 220.76 111.737 220.697 111.793 220.63C111.85 220.564 111.878 220.486 111.878 220.398C111.878 220.301 111.843 220.225 111.773 220.169C111.703 220.112 111.61 220.084 111.494 220.084Z" fill="#FC4C4D"></path><path d="M114.338 221.053C114.338 221.486 114.268 221.807 114.129 222.017C113.99 222.228 113.777 222.333 113.49 222.333C113.213 222.333 113.003 222.224 112.859 222.007C112.716 221.79 112.645 221.472 112.645 221.053C112.645 220.614 112.714 220.29 112.853 220.082C112.993 219.873 113.205 219.769 113.49 219.769C113.769 219.769 113.979 219.878 114.123 220.096C114.266 220.314 114.338 220.633 114.338 221.053ZM113.051 221.053C113.051 221.393 113.085 221.635 113.155 221.781C113.225 221.926 113.337 221.999 113.49 221.999C113.644 221.999 113.756 221.925 113.827 221.777C113.898 221.63 113.934 221.388 113.934 221.053C113.934 220.719 113.898 220.478 113.827 220.328C113.756 220.179 113.644 220.104 113.49 220.104C113.337 220.104 113.225 220.178 113.155 220.324C113.086 220.471 113.051 220.714 113.051 221.053Z" fill="#FC4C4D"></path><path d="M110.835 208.1H110.434V206.492C110.434 206.3 110.439 206.148 110.448 206.035C110.422 206.062 110.39 206.092 110.352 206.125C110.313 206.158 110.186 206.263 109.969 206.439L109.768 206.185L110.501 205.609H110.835V208.1Z" fill="#FC4C4D"></path><path d="M113.342 206.855C113.342 207.287 113.272 207.609 113.133 207.819C112.994 208.029 112.781 208.134 112.494 208.134C112.217 208.134 112.007 208.026 111.863 207.809C111.72 207.592 111.648 207.274 111.648 206.855C111.648 206.415 111.718 206.091 111.857 205.883C111.997 205.675 112.209 205.57 112.494 205.57C112.773 205.57 112.983 205.68 113.127 205.898C113.27 206.115 113.342 206.435 113.342 206.855ZM112.054 206.855C112.054 207.194 112.089 207.437 112.159 207.582C112.229 207.728 112.341 207.8 112.494 207.8C112.648 207.8 112.76 207.726 112.831 207.579C112.902 207.431 112.938 207.19 112.938 206.855C112.938 206.521 112.902 206.279 112.831 206.13C112.76 205.981 112.648 205.906 112.494 205.906C112.341 205.906 112.229 205.979 112.159 206.126C112.089 206.272 112.054 206.515 112.054 206.855Z" fill="#FC4C4D"></path><path d="M115.334 206.855C115.334 207.287 115.265 207.609 115.125 207.819C114.986 208.029 114.773 208.134 114.487 208.134C114.209 208.134 113.999 208.026 113.856 207.809C113.713 207.592 113.641 207.274 113.641 206.855C113.641 206.415 113.711 206.091 113.85 205.883C113.989 205.675 114.201 205.57 114.487 205.57C114.765 205.57 114.976 205.68 115.119 205.898C115.263 206.115 115.334 206.435 115.334 206.855ZM114.047 206.855C114.047 207.194 114.082 207.437 114.152 207.582C114.222 207.728 114.334 207.8 114.487 207.8C114.64 207.8 114.753 207.726 114.824 207.579C114.895 207.431 114.93 207.19 114.93 206.855C114.93 206.521 114.895 206.279 114.824 206.13C114.753 205.981 114.64 205.906 114.487 205.906C114.334 205.906 114.222 205.979 114.152 206.126C114.082 206.272 114.047 206.515 114.047 206.855Z" fill="#FC4C4D"></path><path d="M110.835 193.901H110.434V192.293C110.434 192.102 110.439 191.949 110.448 191.837C110.422 191.864 110.39 191.894 110.352 191.927C110.313 191.96 110.186 192.065 109.969 192.241L109.768 191.987L110.501 191.411H110.835V193.901Z" fill="#FC4C4D"></path><path d="M113.341 193.902H111.651V193.598L112.294 192.953C112.484 192.759 112.61 192.621 112.672 192.54C112.734 192.458 112.779 192.382 112.808 192.31C112.836 192.239 112.85 192.162 112.85 192.08C112.85 191.968 112.816 191.879 112.749 191.815C112.681 191.75 112.588 191.718 112.468 191.718C112.373 191.718 112.28 191.735 112.191 191.77C112.102 191.806 111.999 191.869 111.882 191.961L111.665 191.697C111.804 191.58 111.939 191.497 112.069 191.448C112.2 191.4 112.339 191.375 112.487 191.375C112.719 191.375 112.905 191.436 113.045 191.557C113.184 191.678 113.254 191.84 113.254 192.045C113.254 192.157 113.234 192.264 113.194 192.365C113.153 192.466 113.091 192.57 113.008 192.677C112.924 192.785 112.785 192.93 112.591 193.113L112.158 193.532V193.549H113.341V193.902Z" fill="#FC4C4D"></path><path d="M115.334 192.656C115.334 193.089 115.265 193.41 115.125 193.62C114.986 193.831 114.773 193.936 114.487 193.936C114.209 193.936 113.999 193.827 113.856 193.61C113.713 193.393 113.641 193.075 113.641 192.656C113.641 192.217 113.711 191.893 113.85 191.685C113.989 191.476 114.201 191.372 114.487 191.372C114.765 191.372 114.976 191.481 115.119 191.699C115.263 191.917 115.334 192.236 115.334 192.656ZM114.047 192.656C114.047 192.996 114.082 193.238 114.152 193.384C114.222 193.529 114.334 193.602 114.487 193.602C114.64 193.602 114.753 193.528 114.824 193.38C114.895 193.233 114.93 192.991 114.93 192.656C114.93 192.322 114.895 192.081 114.824 191.931C114.753 191.782 114.64 191.707 114.487 191.707C114.334 191.707 114.222 191.781 114.152 191.927C114.082 192.074 114.047 192.317 114.047 192.656Z" fill="#FC4C4D"></path><path d="M110.835 179.703H110.434V178.095C110.434 177.903 110.439 177.751 110.448 177.638C110.422 177.665 110.39 177.695 110.352 177.728C110.313 177.761 110.186 177.866 109.969 178.042L109.768 177.788L110.501 177.212H110.835V179.703Z" fill="#FC4C4D"></path><path d="M113.43 179.159H113.094V179.703H112.704V179.159H111.565V178.851L112.704 177.206H113.094V178.827H113.43V179.159ZM112.704 178.827V178.202C112.704 177.98 112.71 177.797 112.721 177.656H112.707C112.676 177.73 112.626 177.821 112.557 177.928L111.938 178.827H112.704Z" fill="#FC4C4D"></path><path d="M115.334 178.458C115.334 178.89 115.265 179.212 115.125 179.422C114.986 179.632 114.773 179.737 114.487 179.737C114.209 179.737 113.999 179.629 113.856 179.412C113.713 179.195 113.641 178.877 113.641 178.458C113.641 178.018 113.711 177.694 113.85 177.486C113.989 177.278 114.201 177.173 114.487 177.173C114.765 177.173 114.976 177.283 115.119 177.501C115.263 177.719 115.334 178.038 115.334 178.458ZM114.047 178.458C114.047 178.797 114.082 179.04 114.152 179.185C114.222 179.331 114.334 179.403 114.487 179.403C114.64 179.403 114.753 179.329 114.824 179.182C114.895 179.034 114.93 178.793 114.93 178.458C114.93 178.124 114.895 177.882 114.824 177.733C114.753 177.584 114.64 177.509 114.487 177.509C114.334 177.509 114.222 177.582 114.152 177.729C114.082 177.875 114.047 178.118 114.047 178.458Z" fill="#FC4C4D"></path><path d="M110.835 165.504H110.434V163.896C110.434 163.704 110.439 163.552 110.448 163.44C110.422 163.467 110.39 163.497 110.352 163.53C110.313 163.563 110.186 163.668 109.969 163.844L109.768 163.59L110.501 163.014H110.835V165.504Z" fill="#FC4C4D"></path><path d="M111.658 164.443C111.658 163.469 112.055 162.982 112.85 162.982C112.975 162.982 113.081 162.991 113.167 163.011V163.345C113.081 163.32 112.981 163.307 112.867 163.307C112.6 163.307 112.399 163.379 112.265 163.522C112.131 163.665 112.058 163.894 112.047 164.21H112.067C112.121 164.118 112.196 164.047 112.293 163.996C112.389 163.946 112.503 163.921 112.634 163.921C112.86 163.921 113.036 163.99 113.162 164.128C113.288 164.267 113.351 164.455 113.351 164.692C113.351 164.953 113.278 165.16 113.132 165.311C112.986 165.463 112.787 165.539 112.535 165.539C112.356 165.539 112.201 165.496 112.069 165.41C111.937 165.324 111.836 165.2 111.765 165.035C111.694 164.871 111.658 164.674 111.658 164.443ZM112.528 165.208C112.665 165.208 112.771 165.164 112.846 165.075C112.92 164.987 112.957 164.86 112.957 164.695C112.957 164.552 112.922 164.44 112.853 164.358C112.783 164.276 112.678 164.235 112.538 164.235C112.452 164.235 112.372 164.254 112.299 164.291C112.226 164.328 112.169 164.378 112.127 164.443C112.085 164.507 112.064 164.572 112.064 164.639C112.064 164.799 112.107 164.934 112.194 165.044C112.281 165.153 112.393 165.208 112.528 165.208Z" fill="#FC4C4D"></path><path d="M115.334 164.259C115.334 164.692 115.265 165.013 115.125 165.223C114.986 165.434 114.773 165.539 114.487 165.539C114.209 165.539 113.999 165.43 113.856 165.213C113.713 164.996 113.641 164.678 113.641 164.259C113.641 163.82 113.711 163.496 113.85 163.288C113.989 163.079 114.201 162.975 114.487 162.975C114.765 162.975 114.976 163.084 115.119 163.302C115.263 163.52 115.334 163.839 115.334 164.259ZM114.047 164.259C114.047 164.599 114.082 164.841 114.152 164.987C114.222 165.132 114.334 165.205 114.487 165.205C114.64 165.205 114.753 165.131 114.824 164.983C114.895 164.836 114.93 164.594 114.93 164.259C114.93 163.925 114.895 163.684 114.824 163.534C114.753 163.385 114.64 163.31 114.487 163.31C114.334 163.31 114.222 163.384 114.152 163.53C114.082 163.677 114.047 163.92 114.047 164.259Z" fill="#FC4C4D"></path><path d="M55.6062 350.306C55.6062 350.306 54.115 362.438 55.6062 365.205L44.6353 367.227L47.9373 347.327L55.6062 350.306Z" fill="#EEA886"></path><path d="M55.2313 372.879C55.2313 372.879 64.2279 375.096 71.1179 373.316C72.1446 373.05 72.788 372.027 72.563 370.991C72.2902 369.737 71.1499 368.229 67.4662 367.632C67.4662 367.632 57.5628 363.353 54.8073 359.948C54.8073 359.948 49.1027 362.796 45.6997 360.587C45.6997 360.587 43.1115 362.445 42.6894 366.107C42.3822 368.771 44.3099 371.176 46.9748 371.496C49.7712 371.832 53.4805 372.345 55.2313 372.879Z" fill="#0055FF"></path><path d="M41.1014 348.923C41.1014 348.923 39.6103 361.054 41.1014 363.821L30.1304 365.843L33.4324 345.943L41.1014 348.923Z" fill="#EEA886"></path><path d="M40.917 372.853C40.917 372.853 49.9136 375.07 56.8036 373.289C57.8303 373.024 58.4737 372.001 58.2485 370.965C57.9757 369.711 56.8354 368.203 53.1518 367.606C53.1518 367.606 43.2484 363.326 40.4929 359.921C40.4929 359.921 34.4917 362.121 31.0888 359.912C31.0888 359.912 28.797 362.419 28.3749 366.08C28.0678 368.744 29.9955 371.15 32.6603 371.47C35.4569 371.805 39.1662 372.318 40.917 372.853Z" fill="#0055FF"></path><path d="M43.9098 258.747L50.9197 304.014L46.6589 351.264L48.8551 351.598L57.8434 352.966L66.2469 307.39C67.1039 302.739 67.498 298.015 67.4233 293.286L66.7901 253.36L43.5698 256.553L43.9098 258.747Z" fill="#FEBF50"></path><path opacity="0.15" d="M50.92 304.014L46.6594 351.264L48.8556 351.598L56.7158 305.089L58.2651 258.747H43.9102L50.92 304.014Z" fill="black"></path><path d="M34.0375 254.797C34.0375 254.797 30.6291 262.565 32.2268 281.614L33.5722 305.669L30.8955 352.966L42.6747 353.656L50.6911 313.512C52.1225 306.234 52.8971 298.843 53.006 291.427L53.583 252.083L34.0375 254.797Z" fill="#FEBF50"></path><path d="M68.3362 246.364L67.8482 245.101L62.5532 231.085L66.7918 230.473L68.7111 230.195L72.6348 229.628L74.5173 237.066L74.987 238.922L95.288 232.918C95.288 232.918 96.3181 229.882 99.5553 226.78C100.28 226.954 100.603 227.801 100.178 228.413L98.928 230.211C98.928 230.211 104.038 226.365 107.43 227.578C107.43 227.578 112.122 229.602 110.139 233.702C110.139 233.702 109.518 237.932 99.7587 239.168L71.4613 247.805C70.2043 248.188 68.8594 247.568 68.3362 246.364Z" fill="#EEA886"></path><path d="M40.2051 210.809L40.2536 219.371L53.4232 221.693L61.0733 217.92L57.7644 213.773L55.9352 211.482C55.5692 211.022 55.4133 210.431 55.5072 209.851L57.103 200.022L44.2723 194.459L45.354 202.27L45.5313 203.553C45.9183 207.713 40.2051 210.809 40.2051 210.809Z" fill="#C9885B"></path><path opacity="0.15" d="M44.2725 194.459L45.4829 203.311C49.981 211.123 55.673 212.953 57.7645 213.773L55.9354 211.481C55.5694 211.022 55.4134 210.431 55.5073 209.851L57.1031 200.022L44.2725 194.459Z" fill="black"></path><path d="M63.2517 192.524C63.2517 192.524 61.7023 210.132 56.2797 209.261C56.2797 209.261 50.2275 208.245 43.9331 199.054L42.4321 195.329L46.8866 190.589L63.2517 192.524Z" fill="#EEA886"></path><path d="M54.4396 183.817C54.4396 183.817 70.4114 186.271 62.6192 197.234C62.6192 197.234 61.2181 197.458 59.5719 192.524C59.5719 192.524 58.4099 197.845 49.5979 195.33C49.5979 195.33 49.4041 198.329 48.8232 199.199H47.9517C47.9517 199.199 48.0485 196.103 45.5308 195.426C45.5308 195.426 42.4321 194.942 44.1751 199.199L45.2887 200.989L45.5486 203.896C45.5486 203.896 42.0448 197.651 41.4639 193.878C41.4639 193.878 40.0114 187.687 45.4342 184.397C45.4342 184.397 49.8884 181.011 54.4396 183.817Z" fill="#FEBF50"></path><path d="M65.9629 239.93L68.6549 238.997L74.2259 237.066L75.4528 236.64C72.3909 220.562 69.4171 217.293 68.0585 216.688C67.5686 216.471 67.2887 216.598 67.2887 216.598L66.5005 230.473L65.9629 239.93Z" fill="white"></path><path opacity="0.15" d="M62.2627 231.566L67.5577 245.294L68.6558 239.316L68.4205 230.694L68.0594 217.464C67.5695 217.251 67.2896 217.376 67.2896 217.376L66.5014 230.966L62.2627 231.566Z" fill="black"></path><path d="M67.1352 263.012C64.3656 263.647 59.2652 264.686 53.3883 265.258V265.259H53.3827C46.1978 265.961 37.8537 265.969 31.1864 263.695C31.1077 263.67 31.0288 263.642 30.9514 263.615C29.9331 263.258 29.248 262.304 29.227 261.228L29.2031 260.047L28.6826 234.316C28.6826 234.259 28.6826 234.203 28.6854 234.147L28.819 231.613L29.5532 217.678L39.2152 211.364L39.6696 211.069L42.3871 209.292C42.3871 209.292 40.4531 212.866 49.354 216.998C50.0713 217.329 50.8437 217.504 51.6145 217.511C51.7974 217.514 51.9801 217.506 52.1616 217.49C52.9281 217.419 53.6807 217.186 54.3601 216.781C55.8202 215.914 56.9877 214.302 55.816 211.333L58.8599 212.646L59.1962 212.79L67.5599 216.398C67.9987 216.586 68.2758 217.025 68.2603 217.502L67.4206 242.277C67.4178 242.389 67.4206 242.502 67.4319 242.614L69.1368 260.24C69.2605 261.534 68.4067 262.723 67.1352 263.012Z" fill="white"></path><path opacity="0.15" d="M34.8009 231.194L31.1874 263.695C31.1087 263.67 31.0298 263.642 30.9524 263.615C29.9341 263.258 29.249 262.304 29.228 261.227L29.2041 260.047L28.6836 234.315C28.6836 234.259 28.6836 234.203 28.6863 234.147L28.82 231.613L34.8009 231.194Z" fill="black"></path><path d="M22.145 245.396L23.2305 231.277L32.9874 234.201L30.3762 247.621L30.3122 248.053L42.3391 264.126C42.3391 264.126 43.6465 263.942 47.5446 264.127C48.0277 264.149 48.4942 264.313 48.8849 264.598L50.6139 265.859C50.981 266.507 50.5814 267.321 49.8436 267.428L46.6444 266.68C46.6444 266.68 46.8381 269.776 52.0672 272.098C52.0672 272.098 57.5829 273.651 53.2293 275.001C53.2293 275.001 47.0269 274.39 41.661 272.043C41.1237 271.808 40.6451 271.457 40.2605 271.014L24.2936 252.651C22.7532 250.88 21.9655 248.578 22.0978 246.235L22.145 245.396Z" fill="#EEA886"></path><path d="M30.0615 217.636C30.0615 217.636 24.1305 217.485 22 237.801L32.2645 241.574C32.2645 241.574 40.1564 218.949 30.0615 217.636Z" fill="white"></path><path opacity="0.15" d="M51.6147 217.511L52.7633 265.259H53.3888V265.258L52.1376 217.636L52.1619 217.489C51.9798 217.506 51.7978 217.513 51.6147 217.511Z" fill="black"></path><path opacity="0.15" d="M52.165 217.534C52.1912 217.584 53.2418 219.552 54.1976 218.597L54.8095 221.082C54.8095 221.082 59.4886 219.514 59.1963 212.79L58.8603 212.645C59.0463 214.63 58.5843 217.714 54.9724 220.435L54.3914 217.92C54.3914 217.92 53.3272 218.791 52.165 217.534Z" fill="black"></path><path opacity="0.15" d="M50.6758 218.669C51.4465 218.493 51.5744 217.603 51.5821 217.537C51.4495 218.06 51.0612 218.426 50.6758 218.669Z" fill="black"></path><path opacity="0.15" d="M39.2168 211.364C40.3043 214.05 42.884 217.631 48.8723 221.112L49.7439 219.081C49.7439 219.081 50.2088 218.965 50.6764 218.669C50.3946 218.733 50.0286 218.702 49.5502 218.5L48.8723 220.435C48.8723 220.435 41.0636 216.402 39.67 211.068L39.2168 211.364Z" fill="black"></path><path d="M212.624 278.727H49.3161C46.9078 278.727 44.9556 276.776 44.9556 274.37C44.9556 271.964 46.9078 270.014 49.3161 270.014H212.624C215.032 270.014 216.984 271.964 216.984 274.37C216.984 276.776 215.032 278.727 212.624 278.727Z" fill="#6AE3EF"></path><path d="M126.61 274.651V374.008H135.331V274.651H126.61Z" fill="#6AE3EF"></path><path d="M130.971 374.008C145.498 374.008 157.274 372.844 157.274 371.408C157.274 369.972 145.498 368.808 130.971 368.808C116.444 368.808 104.667 369.972 104.667 371.408C104.667 372.844 116.444 374.008 130.971 374.008Z" fill="#6AE3EF"></path><path d="M90.4731 270.154H66.7317C65.1327 270.154 63.8364 269.423 63.8364 268.521C63.8364 267.619 65.1327 266.888 66.7317 266.888H90.4731C92.0721 266.888 93.3684 267.619 93.3684 268.521C93.3684 269.423 92.0721 270.154 90.4731 270.154Z" fill="#0B2581"></path><path d="M64.9625 270.154H48.2588C47.1337 270.154 46.2217 269.423 46.2217 268.521C46.2217 267.619 47.1337 266.888 48.2588 266.888H64.9625C66.0876 266.888 66.9996 267.619 66.9996 268.521C66.9996 269.423 66.0876 270.154 64.9625 270.154Z" fill="#0055FF"></path><path d="M65.9893 266.274L76.0519 244.738C76.2563 244.301 76.6958 244.021 77.1789 244.021H102.366C103.281 244.021 103.882 244.973 103.489 245.798L93.3678 268.047L67.0905 268.042C66.1918 268.024 65.6089 267.088 65.9893 266.274Z" fill="#0055FF"></path><path d="M161.2 270.154H184.941C186.54 270.154 187.837 269.423 187.837 268.521C187.837 267.619 186.54 266.888 184.941 266.888H161.2C159.601 266.888 158.305 267.619 158.305 268.521C158.305 269.423 159.601 270.154 161.2 270.154Z" fill="#0B2581"></path><path d="M186.709 270.154H203.413C204.538 270.154 205.45 269.423 205.45 268.521C205.45 267.619 204.538 266.888 203.413 266.888H186.709C185.584 266.888 184.672 267.619 184.672 268.521C184.672 269.423 185.584 270.154 186.709 270.154Z" fill="#0055FF"></path><path d="M185.683 266.274L175.62 244.738C175.416 244.301 174.976 244.021 174.493 244.021H149.306C148.392 244.021 147.79 244.973 148.183 245.798L158.304 268.047L184.582 268.042C185.481 268.024 186.063 267.088 185.683 266.274Z" fill="#0055FF"></path><path d="M30.312 248.053L42.339 264.127C42.339 264.127 43.6464 263.942 47.5444 264.127C48.0276 264.15 48.4941 264.313 48.8848 264.598L50.6137 265.859C50.9809 266.507 50.5813 267.321 49.8435 267.428L46.6442 266.681C46.6442 266.681 46.838 269.777 52.067 272.099C52.067 272.099 54.802 273.527 53.2292 275.001C53.2292 275.001 47.2663 278.665 41.8613 272.543C41.4734 272.104 40.6449 271.457 40.2603 271.015L24.2935 252.652L30.312 248.053Z" fill="#EEA886"></path><path d="M381.66 357.567C381.6 359.099 381.637 362.445 382.926 364.404L381.166 367.114L376.64 374.339L374.879 376.822L372.365 378.064L368.782 374.395C373.245 371.065 373.748 358.985 373.748 358.985L372.799 338.063L372.502 312.84V303.443L384.234 304.877L382.601 318.478C382.601 318.478 383.591 323.919 382.007 343.306C382.007 343.306 380.962 352.261 381.566 356.07C381.645 356.565 381.679 357.066 381.66 357.567Z" fill="#EEA886"></path><path d="M383.491 367.396C383.491 367.396 385.532 365.104 381.934 361.734C381.934 361.734 379.216 367.96 376.702 372.137C376.702 372.137 374.942 374.96 371.422 375.411C371.422 375.411 368.781 375.411 371.044 371.347C371.044 371.347 364.381 377.782 364.884 379.927C364.884 379.927 365.073 380.435 367.021 380.378C367.021 380.378 371.265 380.442 373.97 379.33C375.052 378.886 375.847 378.022 376.184 376.997C376.815 375.077 378.651 370.726 382.423 368.469L382.667 372.201C382.671 372.443 382.9 372.632 383.169 372.616C383.419 372.601 383.613 372.411 383.607 372.185L383.491 367.396Z" fill="#0F31AC"></path><path d="M394.079 361.088L394.33 368.2L391.816 375.312L389.93 378.699L383.141 377.909L386.576 367.992C387.797 364.471 388.386 360.762 388.316 357.036L388.046 342.515L386.999 315.574L398.936 320.259C398.936 320.259 397.748 332.227 396.56 342.91C396.56 342.91 393.974 358.296 394.079 361.088Z" fill="#EEA886"></path><path d="M394.331 370.571C394.331 370.571 396.719 368.878 395.085 364.475L394.177 363.849C394.177 363.849 391.816 375.199 390.182 375.99C390.182 375.99 387.542 377.683 384.776 375.99C384.776 375.99 383.895 375.699 384.776 373.192C384.776 373.192 381.004 378.699 381.381 381.408C381.381 381.408 381.444 382.255 385.278 381.408C385.278 381.408 391.313 380.054 391.565 378.247C391.565 378.247 392.571 373.732 393.325 372.829V375.312C393.325 375.562 393.55 375.764 393.828 375.764C394.106 375.764 394.331 375.562 394.331 375.312L394.331 370.571Z" fill="#0F31AC"></path><path d="M402.204 285.44C402.204 285.44 401.968 289.149 401.213 293.551C401.213 293.551 400.581 305.527 400.916 318.28L401.016 325.205C372.7 327.578 368.442 321.347 368.442 321.347L369.939 290.307C369.939 290.307 369.965 289.043 370.083 287.145C370.283 283.913 370.575 277.3 371.54 272.713C371.873 271.137 372.284 269.8 372.799 268.921C372.86 268.814 373.237 271.501 373.303 271.403C373.483 271.13 373.673 270.891 373.872 270.69C374.135 270.423 374.677 269.935 374.977 269.811L399.134 268.031C399.134 268.031 399.521 268.409 400.021 269.362C400.468 270.209 401.006 271.51 401.447 273.401C401.579 273.966 401.703 274.584 401.811 275.259C402.223 277.791 402.442 281.119 402.204 285.44Z" fill="#0055FF"></path><path d="M381.047 240.222C378.872 243.724 373.696 248.031 369.578 251.132C366.367 253.55 363.8 255.234 363.8 255.234L359.298 247.562L372.181 231.875C372.906 231.374 373.574 231.023 374.186 230.8C380.642 228.439 381.047 240.222 381.047 240.222Z" fill="#FC4C4D"></path><path opacity="0.15" d="M381.046 240.222C378.872 243.724 373.696 248.031 369.577 251.132C369.954 240.436 371.496 234.809 373.195 231.63C379.651 229.269 381.046 240.222 381.046 240.222Z" fill="black"></path><path d="M354.631 253.305L341.888 245.214C341.888 245.214 331.618 243.814 330.616 237.188C330.616 237.188 329.125 231.334 338.187 234.864L339.701 235.744L338.66 234.102C338.233 233.428 338.428 232.536 339.098 232.1C339.098 232.1 343.886 236.218 344.896 239.84C344.896 239.84 346.068 241.964 349.11 243.1L357.989 247.721L354.631 253.305Z" fill="#EEA886"></path><path d="M365.275 251.22C365.275 251.22 365.652 257.831 358.185 255.778L352.745 252.704L349.284 250.749C349.284 250.749 351.711 246.243 351.048 243.722C351.048 243.722 352.677 244.359 354.934 245.386C358.059 246.806 362.387 248.97 365.275 251.22Z" fill="white"></path><path d="M391.263 199.037C391.263 199.037 382.056 198.938 380.967 211.204C380.967 211.204 380.719 218.063 379.768 220.3C379.477 220.985 379.425 221.756 379.681 222.455C379.862 222.947 380.19 223.409 380.78 223.61C381.396 223.821 381.891 224.302 382.043 224.934C382.283 225.929 382.094 227.468 379.976 229.305C379.976 229.305 377.006 232.174 379.283 233.658L404.035 234.449L407.203 230.69L408.094 229.206C408.094 229.206 405.117 229.158 403.477 228.094C402.561 227.499 402.365 226.234 403.027 225.367C403.789 224.369 404.896 222.461 403.639 220.996C403.639 220.996 402.352 218.524 402.649 214.864C402.649 214.864 403.342 199.828 391.263 199.037Z" fill="#0055FF"></path><path d="M398.638 227.376L395.47 234.795L382.5 234.301L384.976 229.058C384.976 229.058 386.016 228.105 386.849 225.956C387.275 224.857 387.647 223.446 387.797 221.689L396.064 213.627C396.064 213.627 395.948 217.812 396.564 221.696C396.934 224.016 397.564 226.229 398.638 227.376Z" fill="#C9885B"></path><path opacity="0.15" d="M396.565 221.696C396.558 221.707 396.55 221.719 396.542 221.73C395.549 223.215 394.176 224.414 392.561 225.182C390.33 226.242 388.441 226.388 386.85 225.956C387.275 224.857 387.647 223.445 387.798 221.689L396.065 213.627C396.065 213.627 395.948 217.812 396.565 221.696Z" fill="black"></path><path d="M385.818 202.895C385.818 202.895 378.096 218.424 388.095 224.557C388.095 224.557 396.709 225.843 397.897 212.687C397.897 212.687 395.917 196.564 385.818 202.895Z" fill="#EEA886"></path><path d="M384.828 206.456C384.828 206.456 387.7 201.935 392.137 207.646C392.698 208.367 393.082 209.21 393.281 210.102C394.034 213.487 396.713 222.992 402.946 222.381L396.61 202.994L390.471 200.224L384.877 202.647L380.967 218.622L382.551 223.074C382.551 223.074 383.244 207.247 384.828 206.456Z" fill="#0055FF"></path><path d="M408.193 230.931L407.911 231.912L402.609 250.348L402.451 250.899C401.913 252.896 401.518 254.89 401.232 256.816C400.427 262.232 400.482 267.117 400.638 270.039C400.718 271.544 399.356 272.778 397.723 272.674L373.652 271.148C372.053 271.046 370.892 269.706 371.141 268.247C371.719 264.871 372.647 259.264 372.848 256.918C372.848 256.918 372.749 252.084 372.155 246.158C372.155 246.158 370.373 230.202 375.323 230.111L382.314 229.46L382.523 229.44L382.624 229.431L384.135 229.29L386.401 226.779L386.511 226.555C386.513 226.587 386.515 226.617 386.518 226.649L386.559 226.602C386.557 226.611 386.545 226.66 386.526 226.742C386.671 228.151 387.681 229.334 388.267 229.912C388.302 229.946 388.336 229.979 388.367 230.008L388.371 230.012C388.413 230.051 388.451 230.086 388.485 230.118C388.496 230.128 388.507 230.137 388.517 230.147C388.533 230.161 388.548 230.173 388.562 230.185C388.581 230.203 388.599 230.218 388.615 230.232C388.633 230.247 388.648 230.259 388.66 230.269C388.671 230.278 388.678 230.284 388.683 230.288C388.687 230.291 388.689 230.293 388.689 230.293C388.702 230.288 388.716 230.282 388.729 230.277C388.816 230.243 388.903 230.207 388.991 230.17C389.102 230.123 389.214 230.074 389.326 230.023C389.352 230.011 389.377 230 389.402 229.988C389.429 229.977 389.457 229.965 389.483 229.952C389.513 229.938 389.545 229.923 389.576 229.908C389.583 229.904 389.59 229.901 389.598 229.897C389.603 229.895 389.607 229.894 389.612 229.89C389.627 229.884 389.641 229.877 389.656 229.87C393.509 228.029 397.749 225.299 397.749 225.299L400.229 228.669L400.356 228.816L400.372 228.834C402.079 229.115 403.477 229.421 404.593 229.711C407.102 230.364 408.193 230.931 408.193 230.931Z" fill="#FC4C4D"></path><path opacity="0.15" d="M401.812 275.259L401.118 275.497C401.114 275.386 401.103 275.269 401.086 275.145L394.511 277.588L391.016 280.692C382.997 284.253 382.001 278.747 382.001 278.747C382.63 275.892 387.885 273.986 388.049 273.926L385.685 274.355C385.266 274.43 384.853 274.345 384.513 274.139C384.171 273.934 383.903 273.609 383.775 273.204C390.317 271.238 393.021 272.56 393.021 272.56C394.692 272.391 397.576 271.042 399.198 270.227C399.1 270.038 399.042 269.929 399.042 269.929L400.022 269.362C400.469 270.209 401.006 271.51 401.448 273.401C401.579 273.966 401.703 274.584 401.812 275.259Z" fill="black"></path><path opacity="0.15" d="M407.911 231.912L402.61 250.348L402.451 250.9C401.914 252.896 401.519 254.89 401.233 256.816C400.699 248.439 402.98 235.171 405.966 232.124C407.061 232.409 407.625 232.217 407.911 231.912Z" fill="black"></path><path opacity="0.15" d="M408.042 231.738L408.194 230.931C408.194 230.931 408.26 231.366 408.042 231.738Z" fill="black"></path><path opacity="0.15" d="M397.72 230.25L397.711 230.581L392.155 235.339L389.784 230.882L389.751 230.821L389.437 230.23L389.327 230.023C389.352 230.011 389.377 230.001 389.403 229.989C389.43 229.977 389.457 229.965 389.484 229.952C389.514 229.938 389.545 229.923 389.576 229.908C389.584 229.905 389.591 229.901 389.599 229.898C389.604 229.896 389.608 229.894 389.613 229.891L389.928 230.385L392.452 234.35L397.72 230.25Z" fill="black"></path><path opacity="0.15" d="M388.517 230.147L388.368 230.376L388.23 230.59L388.156 230.702L387.983 230.969L384.828 235.834L383.843 231.65L383.978 231.351L384.927 234.647L387.962 230.562L388.157 230.3L388.364 230.023L388.371 230.013C388.413 230.051 388.451 230.087 388.485 230.119C388.496 230.128 388.507 230.137 388.517 230.147Z" fill="black"></path><path d="M380.571 259.97C380.571 259.967 380.571 259.964 380.57 259.96Z" fill="#131A3F"></path><path d="M380.571 259.97C380.571 259.967 380.571 259.964 380.57 259.96" stroke="#131A3F" stroke-width="0.7833" stroke-miterlimit="10"></path><path d="M415.552 254.417L418.441 265.162L409.036 264.173L407.732 259.283L405.567 250.498L403.887 243.994C402.135 231.33 406.814 230.705 406.814 230.705C409.574 229.396 411.367 238.208 411.367 238.208L415.552 254.417Z" fill="#FC4C4D"></path><path d="M353.665 229.328L353.665 229.324C353.665 229.324 353.666 229.324 353.665 229.328Z" fill="#9AAAF7" stroke="#131A3F" stroke-width="0.7833" stroke-miterlimit="10"></path><path d="M399.242 267.069L338.627 222.737C340.829 217.129 341.787 210.88 341.161 204.389C339.111 183.103 320.889 167.322 300.462 169.143C280.035 170.963 265.138 189.695 267.189 210.982C269.239 232.269 287.461 248.049 307.888 246.229C316.491 245.462 324.105 241.688 329.893 235.994L390.096 280.008C393.567 282.689 398.429 281.966 400.954 278.393C403.479 274.82 402.713 269.75 399.242 267.069ZM307.213 239.221C290.527 240.708 275.589 227.771 273.914 210.382C272.239 192.994 284.451 177.638 301.137 176.151C317.824 174.664 332.762 187.6 334.437 204.989C336.112 222.377 323.899 237.734 307.213 239.221Z" fill="#0F31AC"></path><path d="M280.498 194.246C280.232 195.497 280.003 196.746 279.823 198.001C279.631 199.252 279.491 200.509 279.381 201.764C279.165 204.274 279.104 206.79 279.273 209.288C279.348 210.537 279.487 211.781 279.692 213.013C279.779 213.633 279.92 214.242 280.034 214.857L280.252 215.769C280.317 216.076 280.405 216.376 280.49 216.677C281.137 219.1 282.126 221.423 283.333 223.679C281.696 221.712 280.422 219.413 279.565 216.969C279.333 216.362 279.164 215.737 278.977 215.115C278.821 214.487 278.656 213.858 278.541 213.22C278.404 212.586 278.322 211.943 278.223 211.302C278.155 210.658 278.078 210.014 278.042 209.368C277.868 206.783 278.019 204.188 278.421 201.646C278.622 200.374 278.902 199.116 279.233 197.876C279.581 196.641 279.972 195.415 280.498 194.246Z" fill="white"></path><path d="M381.604 278.153C382.243 275.253 387.657 273.332 387.657 273.332L385.288 273.761C384.87 273.836 384.456 273.751 384.116 273.546C383.775 273.34 383.507 273.015 383.378 272.611C389.921 270.644 392.625 271.967 392.625 271.967C394.295 271.797 397.181 270.448 398.802 269.633C399.525 269.27 399.996 269.011 399.996 269.011L401.641 274.198L400.691 274.552L394.115 276.995L390.62 280.099C382.601 283.66 381.604 278.153 381.604 278.153Z" fill="#EEA886"></path><path d="M400.722 274.904C400.718 274.793 400.706 274.675 400.69 274.552C400.47 272.974 399.241 270.486 398.801 269.633C398.703 269.444 398.645 269.335 398.645 269.335L401.629 267.609L410.142 262.688L414.012 260.973L416.916 262.999C419.446 264.764 418.903 268.651 415.987 269.658L404.161 273.722L400.722 274.904Z" fill="#FC4C4D"></path><path d="M388.666 230.672L387.654 242.535L387.056 240.038L385.868 240.532L388.231 230.59L388.369 230.376L388.518 230.147C388.534 230.161 388.548 230.174 388.562 230.186C388.582 230.203 388.6 230.218 388.616 230.232C388.634 230.247 388.648 230.26 388.66 230.27L388.666 230.672Z" fill="#040C2B"></path><path d="M392.403 242.214L390.818 241.225L389.63 242.906L388.842 230.23L389.19 230.882L392.403 242.214Z" fill="#040C2B"></path><path d="M388.887 232.718C390.063 232.718 391.016 231.965 391.016 231.036C391.016 230.108 390.063 229.355 388.887 229.355C387.712 229.355 386.759 230.108 386.759 231.036C386.759 231.965 387.712 232.718 388.887 232.718Z" fill="#040C2B"></path><path d="M43.1574 167.281L7.86936 167.998C3.95009 168.078 0.70822 164.968 0.628538 161.052L0.00150296 130.28C-0.0783558 126.364 3.0342 123.124 6.95346 123.045L42.2415 122.327C46.1608 122.247 49.4026 125.357 49.4823 129.273L50.1094 160.045C50.1892 163.962 47.0767 167.201 43.1574 167.281Z" fill="#FC4C4D"></path><path d="M40.2605 152.469L40.1357 154.77L40.1331 154.816L40.1446 154.82L41.2009 155.181C41.0114 155.871 40.7237 156.517 40.3552 157.1C40.3486 157.111 40.3419 157.122 40.3352 157.132L39.9285 156.933L39.2587 156.605L37.876 158.451L38.3668 159.146C37.7905 159.529 37.1548 159.819 36.4787 159.999L36.2585 158.917L34.038 158.872L33.7027 160.099C32.9576 159.957 32.2575 159.682 31.6248 159.298L32.2697 158.213L30.7559 156.5L29.5214 157.244L29.5106 157.251C29.4813 157.206 29.4525 157.161 29.4241 157.116C28.9456 156.353 28.6071 155.483 28.4458 154.55L29.5327 154.308L29.656 151.961L28.5338 151.611C28.7317 150.769 29.0739 149.989 29.5306 149.3L30.6827 149.988L32.2375 148.303L31.6216 147.266C32.4159 146.777 33.3144 146.458 34.2709 146.357L34.5161 147.753L36.7343 147.863L37.0836 146.707C37.284 146.624 38.4951 147.385 39.0833 147.898L38.3688 148.942L39.8545 150.748L40.8107 150.221C41.0986 150.85 41.299 151.531 41.3955 152.248L40.2605 152.469ZM34.9981 148.865C34.1709 148.848 33.375 149.086 32.6905 149.545C32.4559 149.703 32.2343 149.886 32.029 150.094C31.2251 150.91 30.7682 152.006 30.7421 153.182C30.7159 154.358 31.1241 155.472 31.8912 156.319C32.6583 157.166 33.6926 157.645 34.8034 157.667C35.9144 157.69 36.969 157.253 37.7728 156.437C38.5767 155.622 39.0336 154.525 39.0598 153.35C39.0859 152.174 38.6778 151.06 37.9107 150.213C37.8326 150.127 37.7516 150.044 37.6681 149.966C36.9317 149.273 35.9958 148.885 34.9981 148.865Z" fill="white"></path><path d="M38.3459 137.387L38.2056 140.087L38.2028 140.141L38.2154 140.145L39.3698 140.567C39.1613 141.377 38.8456 142.136 38.4417 142.821C38.4344 142.833 38.4272 142.846 38.4198 142.858L37.9754 142.625L37.2436 142.241L35.7284 144.409L36.2639 145.224C35.633 145.674 34.9374 146.016 34.1977 146.228L33.9588 144.958L31.5309 144.909L31.1622 146.349C30.3477 146.184 29.5827 145.862 28.8915 145.413L29.5986 144.139L27.9463 142.132L26.5952 143.007L26.5834 143.015C26.5514 142.962 26.5199 142.91 26.489 142.857C25.9673 141.962 25.5986 140.943 25.4238 139.848L26.6127 139.563L26.7517 136.809L25.5252 136.4C25.7431 135.412 26.1187 134.496 26.6194 133.687L27.8781 134.492L29.5813 132.512L28.9095 131.297C29.779 130.722 30.762 130.347 31.8079 130.227L32.0737 131.863L34.4991 131.989L34.883 130.632C35.1023 130.535 36.4252 131.425 37.0675 132.026L36.2844 133.253L37.9058 135.369L38.9523 134.749C39.2661 135.486 39.4839 136.286 39.5882 137.126L38.3459 137.387ZM32.598 133.167C31.6936 133.149 30.8228 133.429 30.0735 133.969C29.8166 134.154 29.574 134.37 29.3491 134.615C28.4685 135.573 27.9671 136.86 27.9365 138.239C27.906 139.619 28.3503 140.925 29.1876 141.917C30.0249 142.91 31.1551 143.47 32.3696 143.495C33.5843 143.519 34.7382 143.005 35.6187 142.047C36.4993 141.089 37.0009 139.802 37.0313 138.423C37.0618 137.043 36.6175 135.737 35.7802 134.744C35.6949 134.643 35.6065 134.546 35.5154 134.454C34.7116 133.643 33.689 133.189 32.598 133.167Z" fill="white"></path><path d="M26.4836 147.25L26.2905 150.968L26.2866 151.042L26.3039 151.048L27.8912 151.628C27.6044 152.744 27.1703 153.789 26.6148 154.732C26.6049 154.75 26.5949 154.766 26.5848 154.783L25.9738 154.463L24.9677 153.934L22.8843 156.919L23.6205 158.041C22.753 158.661 21.7966 159.132 20.7793 159.425L20.4509 157.676L17.1123 157.608L16.6053 159.591C15.4853 159.363 14.4334 158.921 13.4832 158.302L14.4554 156.548L12.1837 153.784L10.3258 154.989L10.3095 155C10.2655 154.928 10.2222 154.855 10.1798 154.782C9.46251 153.55 8.95562 152.147 8.71533 150.639L10.3501 150.246L10.5413 146.453L8.85492 145.891C9.15456 144.53 9.67099 143.269 10.3595 142.155L12.0901 143.264L14.432 140.537L13.5085 138.864C14.7039 138.072 16.0556 137.555 17.4938 137.39L17.8592 139.644L21.1941 139.817L21.7222 137.949C22.0238 137.814 23.8429 139.041 24.7258 139.868L23.6491 141.557L25.8783 144.472L27.3171 143.618C27.7486 144.633 28.048 145.733 28.1913 146.891L26.4836 147.25ZM18.5802 141.439C17.3365 141.414 16.1392 141.8 15.1088 142.544C14.7556 142.798 14.4221 143.095 14.1129 143.432C12.9023 144.752 12.2125 146.524 12.1705 148.423C12.1284 150.323 12.7392 152.121 13.8904 153.488C15.0417 154.855 16.5957 155.627 18.2657 155.66C19.9359 155.694 21.5226 154.986 22.7332 153.667C23.9438 152.347 24.6337 150.575 24.6756 148.676C24.7177 146.776 24.1069 144.978 22.9556 143.611C22.8383 143.471 22.7168 143.338 22.5913 143.212C21.4864 142.094 20.0802 141.47 18.5802 141.439Z" fill="white"></path><path d="M426.416 111.197L387.799 111.982C383.51 112.069 379.962 108.666 379.875 104.38L379.189 70.7049C379.101 66.4193 382.507 62.8743 386.796 62.7872L425.413 62.0016C429.702 61.9143 433.25 65.3178 433.337 69.6035L434.023 103.279C434.111 107.564 430.705 111.109 426.416 111.197Z" fill="#FEBF50"></path><path d="M404.648 88.036L418.49 74.2053C420.253 76.0123 421.644 78.104 422.628 80.4264C423.65 82.8416 424.184 85.4003 424.215 88.036H404.648Z" fill="#829CF8"></path><path d="M404.283 70.6874C406.567 70.7198 408.786 71.1845 410.879 72.0693C412.9 72.9234 414.723 74.1324 416.299 75.6645L404.283 87.6712V70.6874Z" fill="#0055FF"></path><path d="M404.025 103.297C400.011 103.297 396.237 101.735 393.399 98.8986C390.561 96.0627 388.998 92.2919 388.998 88.2809C388.998 84.27 390.561 80.4994 393.399 77.6632C396.177 74.8882 399.85 73.3329 403.767 73.2675V88.5518H419.05C418.981 92.4636 417.423 96.1305 414.647 98.9028C411.809 101.736 408.037 103.297 404.025 103.297Z" fill="#F9FBFD"></path><path d="M130.5 79C146.792 79 160 65.7924 160 49.5C160 33.2076 146.792 20 130.5 20C114.208 20 101 33.2076 101 49.5C101 65.7924 114.208 79 130.5 79Z" fill="#AFF5F9"></path><path d="M129.8 49.955L106.793 41.9301C105.893 44.51 105.433 47.2226 105.433 49.955C105.433 63.3225 116.433 74.3221 129.8 74.3221C134.217 74.3221 138.551 73.1214 142.339 70.8488L129.8 49.955Z" fill="#0055FF"></path><path d="M131.063 49.5L143.762 70.2961C147.326 68.1203 150.271 65.0639 152.314 61.4231C154.357 57.7815 155.431 53.6753 155.431 49.5H131.063Z" fill="#FC4C4D"></path><path d="M131.203 48.3263L155.567 47.9896C155.521 44.6743 154.799 41.4027 153.445 38.3757C152.091 35.3487 150.133 32.6305 147.692 30.3865L131.203 48.3263Z" fill="#FEBF50"></path></g><defs><clipPath id="clip0_431_2"><rect width="434" height="388" fill="white"></rect></clipPath></defs></svg>